<svg width="45" height="45" viewBox="0 0 45 45" fill="none" xmlns="http://www.w3.org/2000/svg">
<path d="M26.8066 22.5C26.8066 24.8785 24.8785 26.8066 22.5 26.8066C20.1215 26.8066 18.1934 24.8785 18.1934 22.5C18.1934 20.1215 20.1215 18.1934 22.5 18.1934C24.8785 18.1934 26.8066 20.1215 26.8066 22.5Z" fill="white"/>
<path d="M32.5717 14.8801C32.3647 14.3191 32.0344 13.8113 31.6052 13.3945C31.1884 12.9654 30.681 12.6351 30.1197 12.4281C29.6644 12.2513 28.9805 12.0408 27.7209 11.9835C26.3582 11.9213 25.9497 11.908 22.5 11.908C19.0499 11.908 18.6414 11.921 17.2791 11.9831C16.0194 12.0408 15.3352 12.2513 14.8803 12.4281C14.3189 12.6351 13.8112 12.9654 13.3947 13.3945C12.9656 13.8113 12.6353 14.3188 12.4279 14.8801C12.2511 15.3354 12.0406 16.0196 11.9833 17.2792C11.9212 18.6415 11.9078 19.0501 11.9078 22.5002C11.9078 25.9499 11.9212 26.3584 11.9833 27.7211C12.0406 28.9807 12.2511 29.6646 12.4279 30.1199C12.6353 30.6812 12.9652 31.1886 13.3944 31.6054C13.8112 32.0346 14.3186 32.3648 14.8799 32.5719C15.3352 32.749 16.0194 32.9595 17.2791 33.0168C18.6414 33.079 19.0496 33.092 22.4996 33.092C25.95 33.092 26.3586 33.079 27.7205 33.0168C28.9802 32.9595 29.6644 32.749 30.1197 32.5719C31.2465 32.1372 32.137 31.2466 32.5717 30.1199C32.7485 29.6646 32.959 28.9807 33.0166 27.7211C33.0788 26.3584 33.0918 25.9499 33.0918 22.5002C33.0918 19.0501 33.0788 18.6415 33.0166 17.2792C32.9593 16.0196 32.7488 15.3354 32.5717 14.8801ZM22.5 29.1342C18.8357 29.1342 15.8653 26.1641 15.8653 22.4998C15.8653 18.8355 18.8357 15.8654 22.5 15.8654C26.1639 15.8654 29.1343 18.8355 29.1343 22.4998C29.1343 26.1641 26.1639 29.1342 22.5 29.1342ZM29.3966 17.1536C28.5404 17.1536 27.8462 16.4594 27.8462 15.6031C27.8462 14.7469 28.5404 14.0527 29.3966 14.0527C30.2529 14.0527 30.9471 14.7469 30.9471 15.6031C30.9467 16.4594 30.2529 17.1536 29.3966 17.1536Z" fill="white"/>
<path d="M22.5 0C10.0755 0 0 10.0755 0 22.5C0 34.9245 10.0755 45 22.5 45C34.9245 45 45 34.9245 45 22.5C45 10.0755 34.9245 0 22.5 0ZM35.342 27.8267C35.2795 29.202 35.0608 30.141 34.7415 30.9629C34.0703 32.6984 32.6984 34.0703 30.9629 34.7415C30.1413 35.0608 29.202 35.2792 27.827 35.342C26.4492 35.4048 26.0091 35.4199 22.5003 35.4199C18.9912 35.4199 18.5514 35.4048 17.1733 35.342C15.7983 35.2792 14.859 35.0608 14.0374 34.7415C13.175 34.4171 12.3943 33.9086 11.7488 33.2512C11.0917 32.606 10.5833 31.825 10.2588 30.9629C9.93954 30.1413 9.72084 29.202 9.65836 27.827C9.59484 26.4489 9.58008 26.0088 9.58008 22.5C9.58008 18.9912 9.59484 18.5511 9.65801 17.1733C9.7205 15.798 9.93885 14.859 10.2581 14.0371C10.5826 13.175 11.0914 12.394 11.7488 11.7488C12.394 11.0914 13.175 10.5829 14.0371 10.2585C14.859 9.93919 15.798 9.72084 17.1733 9.65801C18.5511 9.59518 18.9912 9.58008 22.5 9.58008C26.0088 9.58008 26.4489 9.59518 27.8267 9.65836C29.202 9.72084 30.141 9.93919 30.9629 10.2581C31.825 10.5826 32.606 11.0914 33.2515 11.7488C33.9086 12.3943 34.4174 13.175 34.7415 14.0371C35.0611 14.859 35.2795 15.798 35.3423 17.1733C35.4052 18.5511 35.4199 18.9912 35.4199 22.5C35.4199 26.0088 35.4052 26.4489 35.342 27.8267Z" fill="white"/>
</svg>
