<svg width="45" height="45" viewBox="0 0 45 45" fill="none" xmlns="http://www.w3.org/2000/svg">
<path d="M22.4999 0C34.927 0 45 10.0744 45 22.5001C45 34.9258 34.927 45 22.4999 45C10.0728 45 0 34.9256 0 22.5001C0 10.0745 10.073 0 22.4999 0Z" fill="white"/>
<path d="M12.6787 30.9149H16.8919V16.8721H12.6787V30.9149ZM29.0925 16.3857C27.0478 16.3857 25.2183 17.1324 23.9204 18.7806V16.8259H19.6918V30.9151H23.9204V23.296C23.9204 21.6858 25.3956 20.115 27.2434 20.115C29.0911 20.115 29.5468 21.6858 29.5468 23.2566V30.9137H33.76V22.9431C33.7598 17.4065 31.1386 16.3857 29.0925 16.3857ZM14.7656 15.4687C15.93 15.4687 16.875 14.5237 16.875 13.3593C16.875 12.1949 15.93 11.25 14.7656 11.25C13.6012 11.25 12.6562 12.195 12.6562 13.3594C12.6562 14.5238 13.6012 15.4687 14.7656 15.4687Z" fill="#292929"/>
</svg>
