<svg width="474" height="86" viewBox="0 0 474 86" fill="none" xmlns="http://www.w3.org/2000/svg">
<path d="M26.0537 18L32.2457 1.2H35.0297L41.1737 18H38.4857L37.0457 13.896H30.1817L28.7417 18H26.0537ZM30.9017 11.88H36.3257L33.6137 4.224L30.9017 11.88ZM43.4205 18V6.096H45.6765L45.8685 8.184C46.2365 7.448 46.7725 6.872 47.4765 6.456C48.1965 6.024 49.0205 5.808 49.9485 5.808C51.3885 5.808 52.5165 6.256 53.3325 7.152C54.1645 8.048 54.5805 9.384 54.5805 11.16V18H52.0605V11.424C52.0605 9.12 51.1165 7.968 49.2285 7.968C48.2845 7.968 47.5005 8.304 46.8765 8.976C46.2685 9.648 45.9645 10.608 45.9645 11.856V18H43.4205ZM58.5938 23.28L61.4498 17.016H60.7538L56.0498 6.096H58.8098L62.4578 14.904L66.2738 6.096H68.9618L61.2818 23.28H58.5938ZM82.7402 18.288C81.5722 18.288 80.5242 18.024 79.5962 17.496C78.6842 16.968 77.9642 16.24 77.4362 15.312C76.9242 14.368 76.6682 13.28 76.6682 12.048C76.6682 10.816 76.9242 9.736 77.4362 8.808C77.9642 7.864 78.6842 7.128 79.5962 6.6C80.5242 6.072 81.5722 5.808 82.7402 5.808C84.2122 5.808 85.4442 6.192 86.4362 6.96C87.4442 7.728 88.0922 8.768 88.3802 10.08H85.7162C85.5562 9.424 85.2042 8.912 84.6602 8.544C84.1162 8.176 83.4762 7.992 82.7402 7.992C82.1162 7.992 81.5402 8.152 81.0122 8.472C80.4842 8.776 80.0602 9.232 79.7402 9.84C79.4202 10.432 79.2602 11.168 79.2602 12.048C79.2602 12.928 79.4202 13.672 79.7402 14.28C80.0602 14.872 80.4842 15.328 81.0122 15.648C81.5402 15.968 82.1162 16.128 82.7402 16.128C83.4762 16.128 84.1162 15.944 84.6602 15.576C85.2042 15.208 85.5562 14.688 85.7162 14.016H88.3802C88.1082 15.296 87.4682 16.328 86.4602 17.112C85.4522 17.896 84.2122 18.288 82.7402 18.288ZM96.7073 18.288C95.5713 18.288 94.5473 18.032 93.6353 17.52C92.7393 16.992 92.0273 16.264 91.4993 15.336C90.9713 14.392 90.7073 13.296 90.7073 12.048C90.7073 10.8 90.9713 9.712 91.4993 8.784C92.0433 7.84 92.7713 7.112 93.6833 6.6C94.5953 6.072 95.6113 5.808 96.7313 5.808C97.8673 5.808 98.8833 6.072 99.7793 6.6C100.691 7.112 101.411 7.84 101.939 8.784C102.483 9.712 102.755 10.8 102.755 12.048C102.755 13.296 102.483 14.392 101.939 15.336C101.411 16.264 100.691 16.992 99.7793 17.52C98.8673 18.032 97.8433 18.288 96.7073 18.288ZM96.7073 16.104C97.3153 16.104 97.8753 15.952 98.3873 15.648C98.9153 15.344 99.3393 14.896 99.6593 14.304C99.9793 13.696 100.139 12.944 100.139 12.048C100.139 11.152 99.9793 10.408 99.6593 9.816C99.3553 9.208 98.9393 8.752 98.4113 8.448C97.8993 8.144 97.3393 7.992 96.7313 7.992C96.1233 7.992 95.5553 8.144 95.0273 8.448C94.5153 8.752 94.0993 9.208 93.7793 9.816C93.4593 10.408 93.2993 11.152 93.2993 12.048C93.2993 12.944 93.4593 13.696 93.7793 14.304C94.0993 14.896 94.5153 15.344 95.0273 15.648C95.5393 15.952 96.0993 16.104 96.7073 16.104ZM105.506 18V0.719999H108.05V18H105.506ZM111.272 18V0.719999H113.816V18H111.272ZM122.606 18.288C121.438 18.288 120.398 18.032 119.486 17.52C118.59 16.992 117.886 16.264 117.374 15.336C116.862 14.408 116.606 13.328 116.606 12.096C116.606 10.848 116.854 9.752 117.35 8.808C117.862 7.864 118.566 7.128 119.462 6.6C120.374 6.072 121.43 5.808 122.63 5.808C123.798 5.808 124.814 6.072 125.678 6.6C126.542 7.112 127.214 7.8 127.694 8.664C128.174 9.528 128.414 10.48 128.414 11.52C128.414 11.68 128.406 11.856 128.39 12.048C128.39 12.224 128.382 12.424 128.366 12.648H119.102C119.182 13.8 119.558 14.68 120.23 15.288C120.918 15.88 121.71 16.176 122.606 16.176C123.326 16.176 123.926 16.016 124.406 15.696C124.902 15.36 125.27 14.912 125.51 14.352H128.054C127.734 15.472 127.094 16.408 126.134 17.16C125.19 17.912 124.014 18.288 122.606 18.288ZM122.606 7.896C121.758 7.896 121.006 8.152 120.35 8.664C119.694 9.16 119.294 9.912 119.15 10.92H125.87C125.822 9.992 125.494 9.256 124.886 8.712C124.278 8.168 123.518 7.896 122.606 7.896ZM135.761 14.352C135.137 14.352 134.561 14.28 134.033 14.136L133.001 15.144C133.177 15.256 133.393 15.352 133.649 15.432C133.905 15.512 134.265 15.584 134.729 15.648C135.193 15.712 135.825 15.776 136.625 15.84C138.209 15.984 139.353 16.368 140.057 16.992C140.761 17.6 141.113 18.416 141.113 19.44C141.113 20.144 140.921 20.808 140.537 21.432C140.169 22.072 139.585 22.584 138.785 22.968C138.001 23.368 136.993 23.568 135.761 23.568C134.097 23.568 132.745 23.248 131.705 22.608C130.681 21.984 130.169 21.032 130.169 19.752C130.169 19.256 130.297 18.76 130.553 18.264C130.825 17.784 131.249 17.328 131.825 16.896C131.489 16.752 131.193 16.6 130.937 16.44C130.697 16.264 130.481 16.088 130.289 15.912V15.336L132.353 13.224C131.425 12.424 130.961 11.376 130.961 10.08C130.961 9.296 131.145 8.584 131.513 7.944C131.897 7.288 132.449 6.768 133.169 6.384C133.889 6 134.753 5.808 135.761 5.808C136.433 5.808 137.057 5.904 137.633 6.096H142.073V7.776L139.961 7.896C140.345 8.552 140.537 9.28 140.537 10.08C140.537 10.88 140.345 11.6 139.961 12.24C139.593 12.88 139.049 13.392 138.329 13.776C137.625 14.16 136.769 14.352 135.761 14.352ZM135.761 12.36C136.497 12.36 137.089 12.168 137.537 11.784C138.001 11.384 138.233 10.824 138.233 10.104C138.233 9.368 138.001 8.808 137.537 8.424C137.089 8.04 136.497 7.848 135.761 7.848C135.009 7.848 134.401 8.04 133.937 8.424C133.489 8.808 133.265 9.368 133.265 10.104C133.265 10.824 133.489 11.384 133.937 11.784C134.401 12.168 135.009 12.36 135.761 12.36ZM132.569 19.512C132.569 20.2 132.873 20.712 133.481 21.048C134.089 21.4 134.849 21.576 135.761 21.576C136.641 21.576 137.353 21.384 137.897 21C138.441 20.632 138.713 20.136 138.713 19.512C138.713 19.048 138.529 18.648 138.161 18.312C137.793 17.992 137.097 17.792 136.073 17.712C135.305 17.664 134.625 17.592 134.033 17.496C133.473 17.8 133.089 18.128 132.881 18.48C132.673 18.832 132.569 19.176 132.569 19.512ZM149.442 18.288C148.274 18.288 147.234 18.032 146.322 17.52C145.426 16.992 144.722 16.264 144.21 15.336C143.698 14.408 143.442 13.328 143.442 12.096C143.442 10.848 143.69 9.752 144.186 8.808C144.698 7.864 145.402 7.128 146.298 6.6C147.21 6.072 148.266 5.808 149.466 5.808C150.634 5.808 151.65 6.072 152.514 6.6C153.378 7.112 154.05 7.8 154.53 8.664C155.01 9.528 155.25 10.48 155.25 11.52C155.25 11.68 155.242 11.856 155.226 12.048C155.226 12.224 155.218 12.424 155.202 12.648H145.938C146.018 13.8 146.394 14.68 147.066 15.288C147.754 15.88 148.546 16.176 149.442 16.176C150.162 16.176 150.762 16.016 151.242 15.696C151.738 15.36 152.106 14.912 152.346 14.352H154.89C154.57 15.472 153.93 16.408 152.97 17.16C152.026 17.912 150.85 18.288 149.442 18.288ZM149.442 7.896C148.594 7.896 147.842 8.152 147.186 8.664C146.53 9.16 146.13 9.912 145.986 10.92H152.706C152.658 9.992 152.33 9.256 151.722 8.712C151.114 8.168 150.354 7.896 149.442 7.896ZM168.688 18.288C167.184 18.288 165.944 17.92 164.968 17.184C163.992 16.448 163.432 15.472 163.288 14.256H165.856C165.984 14.8 166.288 15.272 166.768 15.672C167.248 16.056 167.88 16.248 168.664 16.248C169.432 16.248 169.992 16.088 170.344 15.768C170.696 15.448 170.872 15.08 170.872 14.664C170.872 14.056 170.624 13.648 170.128 13.44C169.648 13.216 168.976 13.016 168.112 12.84C167.44 12.696 166.768 12.504 166.096 12.264C165.44 12.024 164.888 11.688 164.44 11.256C164.008 10.808 163.792 10.208 163.792 9.456C163.792 8.416 164.192 7.552 164.992 6.864C165.792 6.16 166.912 5.808 168.352 5.808C169.68 5.808 170.752 6.128 171.568 6.768C172.4 7.408 172.888 8.312 173.032 9.48H170.584C170.504 8.968 170.264 8.568 169.864 8.28C169.48 7.992 168.96 7.848 168.304 7.848C167.664 7.848 167.168 7.984 166.816 8.256C166.464 8.512 166.288 8.848 166.288 9.264C166.288 9.68 166.528 10.008 167.008 10.248C167.504 10.488 168.152 10.704 168.952 10.896C169.752 11.072 170.488 11.28 171.16 11.52C171.848 11.744 172.4 12.08 172.816 12.528C173.232 12.976 173.44 13.632 173.44 14.496C173.456 15.584 173.032 16.488 172.168 17.208C171.32 17.928 170.16 18.288 168.688 18.288ZM180.764 18C179.596 18 178.668 17.72 177.98 17.16C177.292 16.584 176.948 15.568 176.948 14.112V8.232H174.908V6.096H176.948L177.26 3.072H179.492V6.096H182.852V8.232H179.492V14.112C179.492 14.768 179.628 15.224 179.9 15.48C180.188 15.72 180.676 15.84 181.364 15.84H182.732V18H180.764ZM189.867 18.288C188.427 18.288 187.291 17.84 186.459 16.944C185.643 16.048 185.235 14.712 185.235 12.936V6.096H187.779V12.672C187.779 14.976 188.723 16.128 190.611 16.128C191.555 16.128 192.331 15.792 192.939 15.12C193.547 14.448 193.851 13.488 193.851 12.24V6.096H196.395V18H194.139L193.947 15.912C193.579 16.648 193.035 17.232 192.315 17.664C191.611 18.08 190.795 18.288 189.867 18.288ZM205.055 18.288C203.903 18.288 202.887 18.016 202.007 17.472C201.127 16.928 200.439 16.184 199.943 15.24C199.447 14.296 199.199 13.224 199.199 12.024C199.199 10.824 199.447 9.76 199.943 8.832C200.439 7.888 201.127 7.152 202.007 6.624C202.903 6.08 203.927 5.808 205.079 5.808C206.023 5.808 206.847 5.992 207.551 6.36C208.271 6.728 208.831 7.248 209.231 7.92V0.719999H211.775V18H209.495L209.231 16.152C208.847 16.712 208.319 17.208 207.647 17.64C206.975 18.072 206.111 18.288 205.055 18.288ZM205.511 16.08C206.599 16.08 207.487 15.704 208.175 14.952C208.879 14.2 209.231 13.232 209.231 12.048C209.231 10.848 208.879 9.88 208.175 9.144C207.487 8.392 206.599 8.016 205.511 8.016C204.423 8.016 203.527 8.392 202.823 9.144C202.119 9.88 201.767 10.848 201.767 12.048C201.767 12.832 201.927 13.528 202.247 14.136C202.567 14.744 203.007 15.224 203.567 15.576C204.143 15.912 204.791 16.08 205.511 16.08ZM220.551 18.288C219.383 18.288 218.343 18.032 217.431 17.52C216.535 16.992 215.831 16.264 215.319 15.336C214.807 14.408 214.551 13.328 214.551 12.096C214.551 10.848 214.799 9.752 215.295 8.808C215.807 7.864 216.511 7.128 217.407 6.6C218.319 6.072 219.375 5.808 220.575 5.808C221.743 5.808 222.759 6.072 223.623 6.6C224.487 7.112 225.159 7.8 225.639 8.664C226.119 9.528 226.359 10.48 226.359 11.52C226.359 11.68 226.351 11.856 226.335 12.048C226.335 12.224 226.327 12.424 226.311 12.648H217.047C217.127 13.8 217.503 14.68 218.175 15.288C218.863 15.88 219.655 16.176 220.551 16.176C221.271 16.176 221.871 16.016 222.351 15.696C222.847 15.36 223.215 14.912 223.455 14.352H225.999C225.679 15.472 225.039 16.408 224.079 17.16C223.135 17.912 221.959 18.288 220.551 18.288ZM220.551 7.896C219.703 7.896 218.951 8.152 218.295 8.664C217.639 9.16 217.239 9.912 217.095 10.92H223.815C223.767 9.992 223.439 9.256 222.831 8.712C222.223 8.168 221.463 7.896 220.551 7.896ZM228.999 18V6.096H231.255L231.447 8.184C231.815 7.448 232.351 6.872 233.055 6.456C233.775 6.024 234.599 5.808 235.527 5.808C236.967 5.808 238.095 6.256 238.911 7.152C239.743 8.048 240.159 9.384 240.159 11.16V18H237.639V11.424C237.639 9.12 236.695 7.968 234.807 7.968C233.863 7.968 233.079 8.304 232.455 8.976C231.847 9.648 231.543 10.608 231.543 11.856V18H228.999ZM248.147 18C246.979 18 246.051 17.72 245.363 17.16C244.675 16.584 244.331 15.568 244.331 14.112V8.232H242.291V6.096H244.331L244.643 3.072H246.875V6.096H250.235V8.232H246.875V14.112C246.875 14.768 247.011 15.224 247.283 15.48C247.571 15.72 248.059 15.84 248.747 15.84H250.115V18H248.147ZM257.61 18.288C256.106 18.288 254.866 17.92 253.89 17.184C252.914 16.448 252.354 15.472 252.21 14.256H254.778C254.906 14.8 255.21 15.272 255.69 15.672C256.17 16.056 256.802 16.248 257.586 16.248C258.354 16.248 258.914 16.088 259.266 15.768C259.618 15.448 259.794 15.08 259.794 14.664C259.794 14.056 259.546 13.648 259.05 13.44C258.57 13.216 257.898 13.016 257.034 12.84C256.362 12.696 255.69 12.504 255.018 12.264C254.362 12.024 253.81 11.688 253.362 11.256C252.93 10.808 252.714 10.208 252.714 9.456C252.714 8.416 253.114 7.552 253.914 6.864C254.714 6.16 255.834 5.808 257.274 5.808C258.602 5.808 259.674 6.128 260.49 6.768C261.322 7.408 261.81 8.312 261.954 9.48H259.506C259.426 8.968 259.186 8.568 258.786 8.28C258.402 7.992 257.882 7.848 257.226 7.848C256.586 7.848 256.09 7.984 255.738 8.256C255.386 8.512 255.21 8.848 255.21 9.264C255.21 9.68 255.45 10.008 255.93 10.248C256.426 10.488 257.074 10.704 257.874 10.896C258.674 11.072 259.41 11.28 260.082 11.52C260.77 11.744 261.322 12.08 261.738 12.528C262.154 12.976 262.362 13.632 262.362 14.496C262.378 15.584 261.954 16.488 261.09 17.208C260.242 17.928 259.082 18.288 257.61 18.288ZM275.218 18.288C274.21 18.288 273.378 18.12 272.722 17.784C272.066 17.448 271.578 17.008 271.258 16.464C270.938 15.904 270.778 15.296 270.778 14.64C270.778 13.488 271.226 12.576 272.122 11.904C273.018 11.232 274.298 10.896 275.962 10.896H279.082V10.68C279.082 9.752 278.826 9.056 278.314 8.592C277.818 8.128 277.17 7.896 276.37 7.896C275.666 7.896 275.05 8.072 274.522 8.424C274.01 8.76 273.698 9.264 273.586 9.936H271.042C271.122 9.072 271.41 8.336 271.906 7.728C272.418 7.104 273.058 6.632 273.826 6.312C274.61 5.976 275.466 5.808 276.394 5.808C278.058 5.808 279.346 6.248 280.258 7.128C281.17 7.992 281.626 9.176 281.626 10.68V18H279.418L279.202 15.96C278.866 16.616 278.378 17.168 277.738 17.616C277.098 18.064 276.258 18.288 275.218 18.288ZM275.722 16.224C276.41 16.224 276.986 16.064 277.45 15.744C277.93 15.408 278.298 14.968 278.554 14.424C278.826 13.88 278.994 13.28 279.058 12.624H276.226C275.218 12.624 274.498 12.8 274.066 13.152C273.65 13.504 273.442 13.944 273.442 14.472C273.442 15.016 273.642 15.448 274.042 15.768C274.458 16.072 275.018 16.224 275.722 16.224ZM286.032 3.84C285.552 3.84 285.152 3.696 284.832 3.408C284.528 3.104 284.376 2.728 284.376 2.28C284.376 1.832 284.528 1.464 284.832 1.176C285.152 0.871999 285.552 0.719999 286.032 0.719999C286.512 0.719999 286.904 0.871999 287.208 1.176C287.528 1.464 287.688 1.832 287.688 2.28C287.688 2.728 287.528 3.104 287.208 3.408C286.904 3.696 286.512 3.84 286.032 3.84ZM284.76 18V6.096H287.304V18H284.76ZM290.663 18V6.096H292.919L293.135 7.776C293.519 7.168 294.023 6.688 294.647 6.336C295.287 5.984 296.023 5.808 296.855 5.808C298.743 5.808 300.055 6.552 300.791 8.04C301.223 7.352 301.799 6.808 302.519 6.408C303.255 6.008 304.047 5.808 304.895 5.808C306.383 5.808 307.551 6.256 308.399 7.152C309.247 8.048 309.671 9.384 309.671 11.16V18H307.127V11.424C307.127 9.12 306.247 7.968 304.487 7.968C303.591 7.968 302.855 8.304 302.279 8.976C301.719 9.648 301.439 10.608 301.439 11.856V18H298.895V11.424C298.895 9.12 298.007 7.968 296.231 7.968C295.351 7.968 294.623 8.304 294.047 8.976C293.487 9.648 293.207 10.608 293.207 11.856V18H290.663ZM314.087 3.84C313.607 3.84 313.207 3.696 312.887 3.408C312.583 3.104 312.431 2.728 312.431 2.28C312.431 1.832 312.583 1.464 312.887 1.176C313.207 0.871999 313.607 0.719999 314.087 0.719999C314.567 0.719999 314.959 0.871999 315.263 1.176C315.583 1.464 315.743 1.832 315.743 2.28C315.743 2.728 315.583 3.104 315.263 3.408C314.959 3.696 314.567 3.84 314.087 3.84ZM312.815 18V6.096H315.359V18H312.815ZM318.717 18V6.096H320.973L321.165 8.184C321.533 7.448 322.069 6.872 322.773 6.456C323.493 6.024 324.317 5.808 325.245 5.808C326.685 5.808 327.813 6.256 328.629 7.152C329.461 8.048 329.877 9.384 329.877 11.16V18H327.357V11.424C327.357 9.12 326.413 7.968 324.525 7.968C323.581 7.968 322.797 8.304 322.173 8.976C321.565 9.648 321.261 10.608 321.261 11.856V18H318.717ZM337.746 14.352C337.122 14.352 336.546 14.28 336.018 14.136L334.986 15.144C335.162 15.256 335.378 15.352 335.634 15.432C335.89 15.512 336.25 15.584 336.714 15.648C337.178 15.712 337.81 15.776 338.61 15.84C340.194 15.984 341.338 16.368 342.042 16.992C342.746 17.6 343.098 18.416 343.098 19.44C343.098 20.144 342.906 20.808 342.522 21.432C342.154 22.072 341.57 22.584 340.77 22.968C339.986 23.368 338.978 23.568 337.746 23.568C336.082 23.568 334.73 23.248 333.69 22.608C332.666 21.984 332.154 21.032 332.154 19.752C332.154 19.256 332.282 18.76 332.538 18.264C332.81 17.784 333.234 17.328 333.81 16.896C333.474 16.752 333.178 16.6 332.922 16.44C332.682 16.264 332.466 16.088 332.274 15.912V15.336L334.338 13.224C333.41 12.424 332.946 11.376 332.946 10.08C332.946 9.296 333.13 8.584 333.498 7.944C333.882 7.288 334.434 6.768 335.154 6.384C335.874 6 336.738 5.808 337.746 5.808C338.418 5.808 339.042 5.904 339.618 6.096H344.058V7.776L341.946 7.896C342.33 8.552 342.522 9.28 342.522 10.08C342.522 10.88 342.33 11.6 341.946 12.24C341.578 12.88 341.034 13.392 340.314 13.776C339.61 14.16 338.754 14.352 337.746 14.352ZM337.746 12.36C338.482 12.36 339.074 12.168 339.522 11.784C339.986 11.384 340.218 10.824 340.218 10.104C340.218 9.368 339.986 8.808 339.522 8.424C339.074 8.04 338.482 7.848 337.746 7.848C336.994 7.848 336.386 8.04 335.922 8.424C335.474 8.808 335.25 9.368 335.25 10.104C335.25 10.824 335.474 11.384 335.922 11.784C336.386 12.168 336.994 12.36 337.746 12.36ZM334.554 19.512C334.554 20.2 334.858 20.712 335.466 21.048C336.074 21.4 336.834 21.576 337.746 21.576C338.626 21.576 339.338 21.384 339.882 21C340.426 20.632 340.698 20.136 340.698 19.512C340.698 19.048 340.514 18.648 340.146 18.312C339.778 17.992 339.082 17.792 338.058 17.712C337.29 17.664 336.61 17.592 336.018 17.496C335.458 17.8 335.074 18.128 334.866 18.48C334.658 18.832 334.554 19.176 334.554 19.512ZM357.366 18C356.198 18 355.27 17.72 354.582 17.16C353.894 16.584 353.55 15.568 353.55 14.112V8.232H351.51V6.096H353.55L353.862 3.072H356.094V6.096H359.454V8.232H356.094V14.112C356.094 14.768 356.23 15.224 356.502 15.48C356.79 15.72 357.278 15.84 357.966 15.84H359.334V18H357.366ZM367.34 18.288C366.204 18.288 365.18 18.032 364.268 17.52C363.372 16.992 362.66 16.264 362.132 15.336C361.604 14.392 361.34 13.296 361.34 12.048C361.34 10.8 361.604 9.712 362.132 8.784C362.676 7.84 363.404 7.112 364.316 6.6C365.228 6.072 366.244 5.808 367.364 5.808C368.5 5.808 369.516 6.072 370.412 6.6C371.324 7.112 372.044 7.84 372.572 8.784C373.116 9.712 373.388 10.8 373.388 12.048C373.388 13.296 373.116 14.392 372.572 15.336C372.044 16.264 371.324 16.992 370.412 17.52C369.5 18.032 368.476 18.288 367.34 18.288ZM367.34 16.104C367.948 16.104 368.508 15.952 369.02 15.648C369.548 15.344 369.972 14.896 370.292 14.304C370.612 13.696 370.772 12.944 370.772 12.048C370.772 11.152 370.612 10.408 370.292 9.816C369.988 9.208 369.572 8.752 369.044 8.448C368.532 8.144 367.972 7.992 367.364 7.992C366.756 7.992 366.188 8.144 365.66 8.448C365.148 8.752 364.732 9.208 364.412 9.816C364.092 10.408 363.932 11.152 363.932 12.048C363.932 12.944 364.092 13.696 364.412 14.304C364.732 14.896 365.148 15.344 365.66 15.648C366.172 15.952 366.732 16.104 367.34 16.104ZM386.938 18.288C385.434 18.288 384.194 17.92 383.218 17.184C382.242 16.448 381.682 15.472 381.538 14.256H384.106C384.234 14.8 384.538 15.272 385.018 15.672C385.498 16.056 386.13 16.248 386.914 16.248C387.682 16.248 388.242 16.088 388.594 15.768C388.946 15.448 389.122 15.08 389.122 14.664C389.122 14.056 388.874 13.648 388.378 13.44C387.898 13.216 387.226 13.016 386.362 12.84C385.69 12.696 385.018 12.504 384.346 12.264C383.69 12.024 383.138 11.688 382.69 11.256C382.258 10.808 382.042 10.208 382.042 9.456C382.042 8.416 382.442 7.552 383.242 6.864C384.042 6.16 385.162 5.808 386.602 5.808C387.93 5.808 389.002 6.128 389.818 6.768C390.65 7.408 391.138 8.312 391.282 9.48H388.834C388.754 8.968 388.514 8.568 388.114 8.28C387.73 7.992 387.21 7.848 386.554 7.848C385.914 7.848 385.418 7.984 385.066 8.256C384.714 8.512 384.538 8.848 384.538 9.264C384.538 9.68 384.778 10.008 385.258 10.248C385.754 10.488 386.402 10.704 387.202 10.896C388.002 11.072 388.738 11.28 389.41 11.52C390.098 11.744 390.65 12.08 391.066 12.528C391.482 12.976 391.69 13.632 391.69 14.496C391.706 15.584 391.282 16.488 390.418 17.208C389.57 17.928 388.41 18.288 386.938 18.288ZM399.014 18C397.846 18 396.918 17.72 396.23 17.16C395.542 16.584 395.198 15.568 395.198 14.112V8.232H393.158V6.096H395.198L395.51 3.072H397.742V6.096H401.102V8.232H397.742V14.112C397.742 14.768 397.878 15.224 398.15 15.48C398.438 15.72 398.926 15.84 399.614 15.84H400.982V18H399.014ZM407.757 18.288C406.749 18.288 405.917 18.12 405.261 17.784C404.605 17.448 404.117 17.008 403.797 16.464C403.477 15.904 403.317 15.296 403.317 14.64C403.317 13.488 403.765 12.576 404.661 11.904C405.557 11.232 406.837 10.896 408.501 10.896H411.621V10.68C411.621 9.752 411.365 9.056 410.853 8.592C410.357 8.128 409.709 7.896 408.909 7.896C408.205 7.896 407.589 8.072 407.061 8.424C406.549 8.76 406.237 9.264 406.125 9.936H403.581C403.661 9.072 403.949 8.336 404.445 7.728C404.957 7.104 405.597 6.632 406.365 6.312C407.149 5.976 408.005 5.808 408.933 5.808C410.597 5.808 411.885 6.248 412.797 7.128C413.709 7.992 414.165 9.176 414.165 10.68V18H411.957L411.741 15.96C411.405 16.616 410.917 17.168 410.277 17.616C409.637 18.064 408.797 18.288 407.757 18.288ZM408.261 16.224C408.949 16.224 409.525 16.064 409.989 15.744C410.469 15.408 410.837 14.968 411.093 14.424C411.365 13.88 411.533 13.28 411.597 12.624H408.765C407.757 12.624 407.037 12.8 406.605 13.152C406.189 13.504 405.981 13.944 405.981 14.472C405.981 15.016 406.181 15.448 406.581 15.768C406.997 16.072 407.557 16.224 408.261 16.224ZM417.131 18V6.096H419.411L419.627 8.352C420.043 7.568 420.619 6.952 421.355 6.504C422.107 6.04 423.011 5.808 424.067 5.808V8.472H423.371C422.667 8.472 422.035 8.592 421.475 8.832C420.931 9.056 420.491 9.448 420.155 10.008C419.835 10.552 419.675 11.312 419.675 12.288V18H417.131ZM431.241 18C430.073 18 429.145 17.72 428.457 17.16C427.769 16.584 427.425 15.568 427.425 14.112V8.232H425.385V6.096H427.425L427.737 3.072H429.969V6.096H433.329V8.232H429.969V14.112C429.969 14.768 430.105 15.224 430.377 15.48C430.665 15.72 431.153 15.84 431.841 15.84H433.209V18H431.241ZM446.031 18.288C445.023 18.288 444.191 18.12 443.535 17.784C442.879 17.448 442.391 17.008 442.071 16.464C441.751 15.904 441.591 15.296 441.591 14.64C441.591 13.488 442.039 12.576 442.935 11.904C443.831 11.232 445.111 10.896 446.775 10.896H449.895V10.68C449.895 9.752 449.639 9.056 449.127 8.592C448.631 8.128 447.983 7.896 447.183 7.896C446.479 7.896 445.863 8.072 445.335 8.424C444.823 8.76 444.511 9.264 444.399 9.936H441.855C441.935 9.072 442.223 8.336 442.719 7.728C443.231 7.104 443.871 6.632 444.639 6.312C445.423 5.976 446.279 5.808 447.207 5.808C448.871 5.808 450.159 6.248 451.071 7.128C451.983 7.992 452.439 9.176 452.439 10.68V18H450.231L450.015 15.96C449.679 16.616 449.191 17.168 448.551 17.616C447.911 18.064 447.071 18.288 446.031 18.288ZM446.535 16.224C447.223 16.224 447.799 16.064 448.263 15.744C448.743 15.408 449.111 14.968 449.367 14.424C449.639 13.88 449.807 13.28 449.871 12.624H447.039C446.031 12.624 445.311 12.8 444.879 13.152C444.463 13.504 444.255 13.944 444.255 14.472C444.255 15.016 444.455 15.448 444.855 15.768C445.271 16.072 445.831 16.224 446.535 16.224ZM455.405 18V6.096H457.661L457.853 8.184C458.221 7.448 458.757 6.872 459.461 6.456C460.181 6.024 461.005 5.808 461.933 5.808C463.373 5.808 464.501 6.256 465.317 7.152C466.149 8.048 466.565 9.384 466.565 11.16V18H464.045V11.424C464.045 9.12 463.101 7.968 461.213 7.968C460.269 7.968 459.485 8.304 458.861 8.976C458.253 9.648 457.949 10.608 457.949 11.856V18H455.405ZM6.51975 49.288C5.35175 49.288 4.31175 49.032 3.39975 48.52C2.50375 47.992 1.79975 47.264 1.28775 46.336C0.77575 45.408 0.51975 44.328 0.51975 43.096C0.51975 41.848 0.76775 40.752 1.26375 39.808C1.77575 38.864 2.47975 38.128 3.37575 37.6C4.28775 37.072 5.34375 36.808 6.54375 36.808C7.71175 36.808 8.72775 37.072 9.59175 37.6C10.4558 38.112 11.1278 38.8 11.6078 39.664C12.0878 40.528 12.3278 41.48 12.3278 42.52C12.3278 42.68 12.3198 42.856 12.3038 43.048C12.3038 43.224 12.2958 43.424 12.2798 43.648H3.01575C3.09575 44.8 3.47175 45.68 4.14375 46.288C4.83175 46.88 5.62375 47.176 6.51975 47.176C7.23975 47.176 7.83975 47.016 8.31975 46.696C8.81575 46.36 9.18375 45.912 9.42375 45.352H11.9678C11.6478 46.472 11.0078 47.408 10.0478 48.16C9.10375 48.912 7.92775 49.288 6.51975 49.288ZM6.51975 38.896C5.67175 38.896 4.91975 39.152 4.26375 39.664C3.60775 40.16 3.20775 40.912 3.06375 41.92H9.78375C9.73575 40.992 9.40775 40.256 8.79975 39.712C8.19175 39.168 7.43175 38.896 6.51975 38.896ZM14.9674 49V37.096H17.2234L17.4154 39.184C17.7834 38.448 18.3194 37.872 19.0234 37.456C19.7434 37.024 20.5674 36.808 21.4954 36.808C22.9354 36.808 24.0634 37.256 24.8794 38.152C25.7114 39.048 26.1274 40.384 26.1274 42.16V49H23.6074V42.424C23.6074 40.12 22.6634 38.968 20.7754 38.968C19.8314 38.968 19.0474 39.304 18.4234 39.976C17.8154 40.648 17.5114 41.608 17.5114 42.856V49H14.9674ZM34.1156 49C32.9476 49 32.0196 48.72 31.3316 48.16C30.6436 47.584 30.2996 46.568 30.2996 45.112V39.232H28.2596V37.096H30.2996L30.6116 34.072H32.8436V37.096H36.2036V39.232H32.8436V45.112C32.8436 45.768 32.9796 46.224 33.2516 46.48C33.5396 46.72 34.0276 46.84 34.7156 46.84H36.0836V49H34.1156ZM44.0901 49.288C42.9221 49.288 41.8821 49.032 40.9701 48.52C40.0741 47.992 39.3701 47.264 38.8581 46.336C38.3461 45.408 38.0901 44.328 38.0901 43.096C38.0901 41.848 38.3381 40.752 38.8341 39.808C39.3461 38.864 40.0501 38.128 40.9461 37.6C41.8581 37.072 42.9141 36.808 44.1141 36.808C45.2821 36.808 46.2981 37.072 47.1621 37.6C48.0261 38.112 48.6981 38.8 49.1781 39.664C49.6581 40.528 49.8981 41.48 49.8981 42.52C49.8981 42.68 49.8901 42.856 49.8741 43.048C49.8741 43.224 49.8661 43.424 49.8501 43.648H40.5861C40.6661 44.8 41.0421 45.68 41.7141 46.288C42.4021 46.88 43.1941 47.176 44.0901 47.176C44.8101 47.176 45.4101 47.016 45.8901 46.696C46.3861 46.36 46.7541 45.912 46.9941 45.352H49.5381C49.2181 46.472 48.5781 47.408 47.6181 48.16C46.6741 48.912 45.4981 49.288 44.0901 49.288ZM44.0901 38.896C43.2421 38.896 42.4901 39.152 41.8341 39.664C41.1781 40.16 40.7781 40.912 40.6341 41.92H47.3541C47.3061 40.992 46.9781 40.256 46.3701 39.712C45.7621 39.168 45.0021 38.896 44.0901 38.896ZM52.5377 49V37.096H54.8177L55.0337 39.352C55.4497 38.568 56.0257 37.952 56.7617 37.504C57.5137 37.04 58.4177 36.808 59.4737 36.808V39.472H58.7777C58.0737 39.472 57.4417 39.592 56.8817 39.832C56.3377 40.056 55.8977 40.448 55.5617 41.008C55.2417 41.552 55.0817 42.312 55.0817 43.288V49H52.5377ZM61.6549 54.28V37.096H63.9349L64.1989 38.944C64.5829 38.384 65.1109 37.888 65.7829 37.456C66.4549 37.024 67.3189 36.808 68.3749 36.808C69.5269 36.808 70.5429 37.08 71.4229 37.624C72.3029 38.168 72.9909 38.912 73.4869 39.856C73.9989 40.8 74.2549 41.872 74.2549 43.072C74.2549 44.272 73.9989 45.344 73.4869 46.288C72.9909 47.216 72.3029 47.952 71.4229 48.496C70.5429 49.024 69.5189 49.288 68.3509 49.288C67.4229 49.288 66.5989 49.104 65.8789 48.736C65.1749 48.368 64.6149 47.848 64.1989 47.176V54.28H61.6549ZM67.9189 47.08C69.0069 47.08 69.9029 46.712 70.6069 45.976C71.3109 45.224 71.6629 44.248 71.6629 43.048C71.6629 42.264 71.5029 41.568 71.1829 40.96C70.8629 40.352 70.4229 39.88 69.8629 39.544C69.3029 39.192 68.6549 39.016 67.9189 39.016C66.8309 39.016 65.9349 39.392 65.2309 40.144C64.5429 40.896 64.1989 41.864 64.1989 43.048C64.1989 44.248 64.5429 45.224 65.2309 45.976C65.9349 46.712 66.8309 47.08 67.9189 47.08ZM77.0064 49V37.096H79.2864L79.5024 39.352C79.9184 38.568 80.4944 37.952 81.2304 37.504C81.9824 37.04 82.8864 36.808 83.9424 36.808V39.472H83.2464C82.5424 39.472 81.9104 39.592 81.3504 39.832C80.8064 40.056 80.3664 40.448 80.0304 41.008C79.7104 41.552 79.5504 42.312 79.5504 43.288V49H77.0064ZM87.5636 34.84C87.0836 34.84 86.6836 34.696 86.3636 34.408C86.0596 34.104 85.9076 33.728 85.9076 33.28C85.9076 32.832 86.0596 32.464 86.3636 32.176C86.6836 31.872 87.0836 31.72 87.5636 31.72C88.0436 31.72 88.4356 31.872 88.7396 32.176C89.0596 32.464 89.2196 32.832 89.2196 33.28C89.2196 33.728 89.0596 34.104 88.7396 34.408C88.4356 34.696 88.0436 34.84 87.5636 34.84ZM86.2916 49V37.096H88.8356V49H86.2916ZM96.9459 49.288C95.4419 49.288 94.2019 48.92 93.2259 48.184C92.2499 47.448 91.6899 46.472 91.5459 45.256H94.1139C94.2419 45.8 94.5459 46.272 95.0259 46.672C95.5059 47.056 96.1379 47.248 96.9219 47.248C97.6899 47.248 98.2499 47.088 98.6019 46.768C98.9539 46.448 99.1299 46.08 99.1299 45.664C99.1299 45.056 98.8819 44.648 98.3859 44.44C97.9059 44.216 97.2339 44.016 96.3699 43.84C95.6979 43.696 95.0259 43.504 94.3539 43.264C93.6979 43.024 93.1459 42.688 92.6979 42.256C92.2659 41.808 92.0499 41.208 92.0499 40.456C92.0499 39.416 92.4499 38.552 93.2499 37.864C94.0499 37.16 95.1699 36.808 96.6099 36.808C97.9379 36.808 99.0099 37.128 99.8259 37.768C100.658 38.408 101.146 39.312 101.29 40.48H98.8419C98.7619 39.968 98.5219 39.568 98.1219 39.28C97.7379 38.992 97.2179 38.848 96.5619 38.848C95.9219 38.848 95.4259 38.984 95.0739 39.256C94.7219 39.512 94.5459 39.848 94.5459 40.264C94.5459 40.68 94.7859 41.008 95.2659 41.248C95.7619 41.488 96.4099 41.704 97.2099 41.896C98.0099 42.072 98.7459 42.28 99.4179 42.52C100.106 42.744 100.658 43.08 101.074 43.528C101.49 43.976 101.698 44.632 101.698 45.496C101.714 46.584 101.29 47.488 100.426 48.208C99.5779 48.928 98.4179 49.288 96.9459 49.288ZM110.043 49.288C108.875 49.288 107.835 49.032 106.923 48.52C106.027 47.992 105.323 47.264 104.811 46.336C104.299 45.408 104.043 44.328 104.043 43.096C104.043 41.848 104.291 40.752 104.787 39.808C105.299 38.864 106.003 38.128 106.899 37.6C107.811 37.072 108.867 36.808 110.067 36.808C111.235 36.808 112.251 37.072 113.115 37.6C113.979 38.112 114.651 38.8 115.131 39.664C115.611 40.528 115.851 41.48 115.851 42.52C115.851 42.68 115.843 42.856 115.827 43.048C115.827 43.224 115.819 43.424 115.803 43.648H106.539C106.619 44.8 106.995 45.68 107.667 46.288C108.355 46.88 109.147 47.176 110.043 47.176C110.763 47.176 111.363 47.016 111.843 46.696C112.339 46.36 112.707 45.912 112.947 45.352H115.491C115.171 46.472 114.531 47.408 113.571 48.16C112.627 48.912 111.451 49.288 110.043 49.288ZM110.043 38.896C109.195 38.896 108.443 39.152 107.787 39.664C107.131 40.16 106.731 40.912 106.587 41.92H113.307C113.259 40.992 112.931 40.256 112.323 39.712C111.715 39.168 110.955 38.896 110.043 38.896ZM117.075 51.832L118.467 46.168H120.987L118.779 51.832H117.075ZM134.86 49.288C133.708 49.288 132.692 49.016 131.812 48.472C130.932 47.928 130.244 47.184 129.748 46.24C129.252 45.296 129.004 44.224 129.004 43.024C129.004 41.824 129.252 40.76 129.748 39.832C130.244 38.888 130.932 38.152 131.812 37.624C132.708 37.08 133.732 36.808 134.884 36.808C135.828 36.808 136.652 36.992 137.356 37.36C138.076 37.728 138.636 38.248 139.036 38.92V31.72H141.58V49H139.3L139.036 47.152C138.652 47.712 138.124 48.208 137.452 48.64C136.78 49.072 135.916 49.288 134.86 49.288ZM135.316 47.08C136.404 47.08 137.292 46.704 137.98 45.952C138.684 45.2 139.036 44.232 139.036 43.048C139.036 41.848 138.684 40.88 137.98 40.144C137.292 39.392 136.404 39.016 135.316 39.016C134.228 39.016 133.332 39.392 132.628 40.144C131.924 40.88 131.572 41.848 131.572 43.048C131.572 43.832 131.732 44.528 132.052 45.136C132.372 45.744 132.812 46.224 133.372 46.576C133.948 46.912 134.596 47.08 135.316 47.08ZM144.788 49V37.096H147.068L147.284 39.352C147.7 38.568 148.276 37.952 149.012 37.504C149.764 37.04 150.668 36.808 151.724 36.808V39.472H151.028C150.324 39.472 149.692 39.592 149.132 39.832C148.588 40.056 148.148 40.448 147.812 41.008C147.492 41.552 147.332 42.312 147.332 43.288V49H144.788ZM159.145 49.288C157.977 49.288 156.937 49.032 156.025 48.52C155.129 47.992 154.425 47.264 153.913 46.336C153.401 45.408 153.145 44.328 153.145 43.096C153.145 41.848 153.393 40.752 153.889 39.808C154.401 38.864 155.105 38.128 156.001 37.6C156.913 37.072 157.969 36.808 159.169 36.808C160.337 36.808 161.353 37.072 162.217 37.6C163.081 38.112 163.753 38.8 164.233 39.664C164.713 40.528 164.953 41.48 164.953 42.52C164.953 42.68 164.945 42.856 164.929 43.048C164.929 43.224 164.921 43.424 164.905 43.648H155.641C155.721 44.8 156.097 45.68 156.769 46.288C157.457 46.88 158.249 47.176 159.145 47.176C159.865 47.176 160.465 47.016 160.945 46.696C161.441 46.36 161.809 45.912 162.049 45.352H164.593C164.273 46.472 163.633 47.408 162.673 48.16C161.729 48.912 160.553 49.288 159.145 49.288ZM159.145 38.896C158.297 38.896 157.545 39.152 156.889 39.664C156.233 40.16 155.833 40.912 155.689 41.92H162.409C162.361 40.992 162.033 40.256 161.425 39.712C160.817 39.168 160.057 38.896 159.145 38.896ZM171.624 49.288C170.616 49.288 169.784 49.12 169.128 48.784C168.472 48.448 167.984 48.008 167.664 47.464C167.344 46.904 167.184 46.296 167.184 45.64C167.184 44.488 167.632 43.576 168.528 42.904C169.424 42.232 170.704 41.896 172.368 41.896H175.488V41.68C175.488 40.752 175.232 40.056 174.72 39.592C174.224 39.128 173.576 38.896 172.776 38.896C172.072 38.896 171.456 39.072 170.928 39.424C170.416 39.76 170.104 40.264 169.992 40.936H167.448C167.528 40.072 167.816 39.336 168.312 38.728C168.824 38.104 169.464 37.632 170.232 37.312C171.016 36.976 171.872 36.808 172.8 36.808C174.464 36.808 175.752 37.248 176.664 38.128C177.576 38.992 178.032 40.176 178.032 41.68V49H175.824L175.608 46.96C175.272 47.616 174.784 48.168 174.144 48.616C173.504 49.064 172.664 49.288 171.624 49.288ZM172.128 47.224C172.816 47.224 173.392 47.064 173.856 46.744C174.336 46.408 174.704 45.968 174.96 45.424C175.232 44.88 175.4 44.28 175.464 43.624H172.632C171.624 43.624 170.904 43.8 170.472 44.152C170.056 44.504 169.848 44.944 169.848 45.472C169.848 46.016 170.048 46.448 170.448 46.768C170.864 47.072 171.424 47.224 172.128 47.224ZM180.999 49V37.096H183.255L183.471 38.776C183.855 38.168 184.359 37.688 184.983 37.336C185.623 36.984 186.359 36.808 187.191 36.808C189.079 36.808 190.391 37.552 191.127 39.04C191.559 38.352 192.135 37.808 192.855 37.408C193.591 37.008 194.383 36.808 195.231 36.808C196.719 36.808 197.887 37.256 198.735 38.152C199.583 39.048 200.007 40.384 200.007 42.16V49H197.463V42.424C197.463 40.12 196.583 38.968 194.823 38.968C193.927 38.968 193.191 39.304 192.615 39.976C192.055 40.648 191.775 41.608 191.775 42.856V49H189.231V42.424C189.231 40.12 188.343 38.968 186.567 38.968C185.687 38.968 184.959 39.304 184.383 39.976C183.823 40.648 183.543 41.608 183.543 42.856V49H180.999ZM204.423 34.84C203.943 34.84 203.543 34.696 203.223 34.408C202.919 34.104 202.767 33.728 202.767 33.28C202.767 32.832 202.919 32.464 203.223 32.176C203.543 31.872 203.943 31.72 204.423 31.72C204.903 31.72 205.295 31.872 205.599 32.176C205.919 32.464 206.079 32.832 206.079 33.28C206.079 33.728 205.919 34.104 205.599 34.408C205.295 34.696 204.903 34.84 204.423 34.84ZM203.151 49V37.096H205.695V49H203.151ZM209.053 49V37.096H211.309L211.501 39.184C211.869 38.448 212.405 37.872 213.109 37.456C213.829 37.024 214.653 36.808 215.581 36.808C217.021 36.808 218.149 37.256 218.965 38.152C219.797 39.048 220.213 40.384 220.213 42.16V49H217.693V42.424C217.693 40.12 216.749 38.968 214.861 38.968C213.917 38.968 213.133 39.304 212.509 39.976C211.901 40.648 211.597 41.608 211.597 42.856V49H209.053ZM228.082 45.352C227.458 45.352 226.882 45.28 226.354 45.136L225.322 46.144C225.498 46.256 225.714 46.352 225.97 46.432C226.226 46.512 226.586 46.584 227.05 46.648C227.514 46.712 228.146 46.776 228.946 46.84C230.53 46.984 231.674 47.368 232.378 47.992C233.082 48.6 233.434 49.416 233.434 50.44C233.434 51.144 233.242 51.808 232.858 52.432C232.49 53.072 231.906 53.584 231.106 53.968C230.322 54.368 229.314 54.568 228.082 54.568C226.418 54.568 225.066 54.248 224.026 53.608C223.002 52.984 222.49 52.032 222.49 50.752C222.49 50.256 222.618 49.76 222.874 49.264C223.146 48.784 223.57 48.328 224.146 47.896C223.81 47.752 223.514 47.6 223.258 47.44C223.018 47.264 222.802 47.088 222.61 46.912V46.336L224.674 44.224C223.746 43.424 223.282 42.376 223.282 41.08C223.282 40.296 223.466 39.584 223.834 38.944C224.218 38.288 224.77 37.768 225.49 37.384C226.21 37 227.074 36.808 228.082 36.808C228.754 36.808 229.378 36.904 229.954 37.096H234.394V38.776L232.282 38.896C232.666 39.552 232.858 40.28 232.858 41.08C232.858 41.88 232.666 42.6 232.282 43.24C231.914 43.88 231.37 44.392 230.65 44.776C229.946 45.16 229.09 45.352 228.082 45.352ZM228.082 43.36C228.818 43.36 229.41 43.168 229.858 42.784C230.322 42.384 230.554 41.824 230.554 41.104C230.554 40.368 230.322 39.808 229.858 39.424C229.41 39.04 228.818 38.848 228.082 38.848C227.33 38.848 226.722 39.04 226.258 39.424C225.81 39.808 225.586 40.368 225.586 41.104C225.586 41.824 225.81 42.384 226.258 42.784C226.722 43.168 227.33 43.36 228.082 43.36ZM224.89 50.512C224.89 51.2 225.194 51.712 225.802 52.048C226.41 52.4 227.17 52.576 228.082 52.576C228.962 52.576 229.674 52.384 230.218 52C230.762 51.632 231.034 51.136 231.034 50.512C231.034 50.048 230.85 49.648 230.482 49.312C230.114 48.992 229.418 48.792 228.394 48.712C227.626 48.664 226.946 48.592 226.354 48.496C225.794 48.8 225.41 49.128 225.202 49.48C224.994 49.832 224.89 50.176 224.89 50.512ZM248.278 49.288C247.142 49.288 246.118 49.032 245.206 48.52C244.31 47.992 243.598 47.264 243.07 46.336C242.542 45.392 242.278 44.296 242.278 43.048C242.278 41.8 242.542 40.712 243.07 39.784C243.614 38.84 244.342 38.112 245.254 37.6C246.166 37.072 247.182 36.808 248.302 36.808C249.438 36.808 250.454 37.072 251.35 37.6C252.262 38.112 252.982 38.84 253.51 39.784C254.054 40.712 254.326 41.8 254.326 43.048C254.326 44.296 254.054 45.392 253.51 46.336C252.982 47.264 252.262 47.992 251.35 48.52C250.438 49.032 249.414 49.288 248.278 49.288ZM248.278 47.104C248.886 47.104 249.446 46.952 249.958 46.648C250.486 46.344 250.91 45.896 251.23 45.304C251.55 44.696 251.71 43.944 251.71 43.048C251.71 42.152 251.55 41.408 251.23 40.816C250.926 40.208 250.51 39.752 249.982 39.448C249.47 39.144 248.91 38.992 248.302 38.992C247.694 38.992 247.126 39.144 246.598 39.448C246.086 39.752 245.67 40.208 245.35 40.816C245.03 41.408 244.87 42.152 244.87 43.048C244.87 43.944 245.03 44.696 245.35 45.304C245.67 45.896 246.086 46.344 246.598 46.648C247.11 46.952 247.67 47.104 248.278 47.104ZM257.677 49V39.232H255.973V37.096H257.677V35.368C257.677 34.072 257.997 33.144 258.637 32.584C259.293 32.008 260.213 31.72 261.397 31.72H262.645V33.88H261.781C261.221 33.88 260.821 34 260.581 34.24C260.341 34.464 260.221 34.848 260.221 35.392V37.096H262.957V39.232H260.221V49H257.677ZM276.989 49.288C275.821 49.288 274.781 49.032 273.869 48.52C272.973 47.992 272.269 47.264 271.757 46.336C271.245 45.408 270.989 44.328 270.989 43.096C270.989 41.848 271.237 40.752 271.733 39.808C272.245 38.864 272.949 38.128 273.845 37.6C274.757 37.072 275.813 36.808 277.013 36.808C278.181 36.808 279.197 37.072 280.061 37.6C280.925 38.112 281.597 38.8 282.077 39.664C282.557 40.528 282.797 41.48 282.797 42.52C282.797 42.68 282.789 42.856 282.773 43.048C282.773 43.224 282.765 43.424 282.749 43.648H273.485C273.565 44.8 273.941 45.68 274.613 46.288C275.301 46.88 276.093 47.176 276.989 47.176C277.709 47.176 278.309 47.016 278.789 46.696C279.285 46.36 279.653 45.912 279.893 45.352H282.437C282.117 46.472 281.477 47.408 280.517 48.16C279.573 48.912 278.397 49.288 276.989 49.288ZM276.989 38.896C276.141 38.896 275.389 39.152 274.733 39.664C274.077 40.16 273.677 40.912 273.533 41.92H280.253C280.205 40.992 279.877 40.256 279.269 39.712C278.661 39.168 277.901 38.896 276.989 38.896ZM285.436 49V37.096H287.692L287.884 39.184C288.252 38.448 288.788 37.872 289.492 37.456C290.212 37.024 291.036 36.808 291.964 36.808C293.404 36.808 294.532 37.256 295.348 38.152C296.18 39.048 296.596 40.384 296.596 42.16V49H294.076V42.424C294.076 40.12 293.132 38.968 291.244 38.968C290.3 38.968 289.516 39.304 288.892 39.976C288.284 40.648 287.98 41.608 287.98 42.856V49H285.436ZM304.584 49C303.416 49 302.488 48.72 301.8 48.16C301.112 47.584 300.768 46.568 300.768 45.112V39.232H298.728V37.096H300.768L301.08 34.072H303.312V37.096H306.672V39.232H303.312V45.112C303.312 45.768 303.448 46.224 303.72 46.48C304.008 46.72 304.496 46.84 305.184 46.84H306.552V49H304.584ZM309.296 49V37.096H311.576L311.792 39.352C312.208 38.568 312.784 37.952 313.52 37.504C314.272 37.04 315.176 36.808 316.232 36.808V39.472H315.536C314.832 39.472 314.2 39.592 313.64 39.832C313.096 40.056 312.656 40.448 312.32 41.008C312 41.552 311.84 42.312 311.84 43.288V49H309.296ZM323.653 49.288C322.485 49.288 321.445 49.032 320.533 48.52C319.637 47.992 318.933 47.264 318.421 46.336C317.909 45.408 317.653 44.328 317.653 43.096C317.653 41.848 317.901 40.752 318.397 39.808C318.909 38.864 319.613 38.128 320.509 37.6C321.421 37.072 322.477 36.808 323.677 36.808C324.845 36.808 325.861 37.072 326.725 37.6C327.589 38.112 328.261 38.8 328.741 39.664C329.221 40.528 329.461 41.48 329.461 42.52C329.461 42.68 329.453 42.856 329.437 43.048C329.437 43.224 329.429 43.424 329.413 43.648H320.149C320.229 44.8 320.605 45.68 321.277 46.288C321.965 46.88 322.757 47.176 323.653 47.176C324.373 47.176 324.973 47.016 325.453 46.696C325.949 46.36 326.317 45.912 326.557 45.352H329.101C328.781 46.472 328.141 47.408 327.181 48.16C326.237 48.912 325.061 49.288 323.653 49.288ZM323.653 38.896C322.805 38.896 322.053 39.152 321.397 39.664C320.741 40.16 320.341 40.912 320.197 41.92H326.917C326.869 40.992 326.541 40.256 325.933 39.712C325.325 39.168 324.565 38.896 323.653 38.896ZM332.1 54.28V37.096H334.38L334.644 38.944C335.028 38.384 335.556 37.888 336.228 37.456C336.9 37.024 337.764 36.808 338.82 36.808C339.972 36.808 340.988 37.08 341.868 37.624C342.748 38.168 343.436 38.912 343.932 39.856C344.444 40.8 344.7 41.872 344.7 43.072C344.7 44.272 344.444 45.344 343.932 46.288C343.436 47.216 342.748 47.952 341.868 48.496C340.988 49.024 339.964 49.288 338.796 49.288C337.868 49.288 337.044 49.104 336.324 48.736C335.62 48.368 335.06 47.848 334.644 47.176V54.28H332.1ZM338.364 47.08C339.452 47.08 340.348 46.712 341.052 45.976C341.756 45.224 342.108 44.248 342.108 43.048C342.108 42.264 341.948 41.568 341.628 40.96C341.308 40.352 340.868 39.88 340.308 39.544C339.748 39.192 339.1 39.016 338.364 39.016C337.276 39.016 336.38 39.392 335.676 40.144C334.988 40.896 334.644 41.864 334.644 43.048C334.644 44.248 334.988 45.224 335.676 45.976C336.38 46.712 337.276 47.08 338.364 47.08ZM347.452 49V37.096H349.732L349.948 39.352C350.364 38.568 350.94 37.952 351.676 37.504C352.428 37.04 353.332 36.808 354.388 36.808V39.472H353.692C352.988 39.472 352.356 39.592 351.796 39.832C351.252 40.056 350.812 40.448 350.476 41.008C350.156 41.552 349.996 42.312 349.996 43.288V49H347.452ZM361.809 49.288C360.641 49.288 359.601 49.032 358.689 48.52C357.793 47.992 357.089 47.264 356.577 46.336C356.065 45.408 355.809 44.328 355.809 43.096C355.809 41.848 356.057 40.752 356.553 39.808C357.065 38.864 357.769 38.128 358.665 37.6C359.577 37.072 360.633 36.808 361.833 36.808C363.001 36.808 364.017 37.072 364.881 37.6C365.745 38.112 366.417 38.8 366.897 39.664C367.377 40.528 367.617 41.48 367.617 42.52C367.617 42.68 367.609 42.856 367.593 43.048C367.593 43.224 367.585 43.424 367.569 43.648H358.305C358.385 44.8 358.761 45.68 359.433 46.288C360.121 46.88 360.913 47.176 361.809 47.176C362.529 47.176 363.129 47.016 363.609 46.696C364.105 46.36 364.473 45.912 364.713 45.352H367.257C366.937 46.472 366.297 47.408 365.337 48.16C364.393 48.912 363.217 49.288 361.809 49.288ZM361.809 38.896C360.961 38.896 360.209 39.152 359.553 39.664C358.897 40.16 358.497 40.912 358.353 41.92H365.073C365.025 40.992 364.697 40.256 364.089 39.712C363.481 39.168 362.721 38.896 361.809 38.896ZM370.256 49V37.096H372.512L372.704 39.184C373.072 38.448 373.608 37.872 374.312 37.456C375.032 37.024 375.856 36.808 376.784 36.808C378.224 36.808 379.352 37.256 380.168 38.152C381 39.048 381.416 40.384 381.416 42.16V49H378.896V42.424C378.896 40.12 377.952 38.968 376.064 38.968C375.12 38.968 374.336 39.304 373.712 39.976C373.104 40.648 372.8 41.608 372.8 42.856V49H370.256ZM389.981 49.288C388.813 49.288 387.773 49.032 386.861 48.52C385.965 47.992 385.261 47.264 384.749 46.336C384.237 45.408 383.981 44.328 383.981 43.096C383.981 41.848 384.229 40.752 384.725 39.808C385.237 38.864 385.941 38.128 386.837 37.6C387.749 37.072 388.805 36.808 390.005 36.808C391.173 36.808 392.189 37.072 393.053 37.6C393.917 38.112 394.589 38.8 395.069 39.664C395.549 40.528 395.789 41.48 395.789 42.52C395.789 42.68 395.781 42.856 395.765 43.048C395.765 43.224 395.757 43.424 395.741 43.648H386.477C386.557 44.8 386.933 45.68 387.605 46.288C388.293 46.88 389.085 47.176 389.981 47.176C390.701 47.176 391.301 47.016 391.781 46.696C392.277 46.36 392.645 45.912 392.885 45.352H395.429C395.109 46.472 394.469 47.408 393.509 48.16C392.565 48.912 391.389 49.288 389.981 49.288ZM389.981 38.896C389.133 38.896 388.381 39.152 387.725 39.664C387.069 40.16 386.669 40.912 386.525 41.92H393.245C393.197 40.992 392.869 40.256 392.261 39.712C391.653 39.168 390.893 38.896 389.981 38.896ZM402.82 49.288C401.38 49.288 400.244 48.84 399.412 47.944C398.596 47.048 398.188 45.712 398.188 43.936V37.096H400.732V43.672C400.732 45.976 401.676 47.128 403.564 47.128C404.508 47.128 405.284 46.792 405.892 46.12C406.5 45.448 406.804 44.488 406.804 43.24V37.096H409.348V49H407.092L406.9 46.912C406.532 47.648 405.988 48.232 405.268 48.664C404.564 49.08 403.748 49.288 402.82 49.288ZM412.585 49V37.096H414.865L415.081 39.352C415.497 38.568 416.073 37.952 416.809 37.504C417.561 37.04 418.465 36.808 419.521 36.808V39.472H418.825C418.121 39.472 417.489 39.592 416.929 39.832C416.385 40.056 415.945 40.448 415.609 41.008C415.289 41.552 415.129 42.312 415.129 43.288V49H412.585ZM426.454 49.288C424.95 49.288 423.71 48.92 422.734 48.184C421.758 47.448 421.198 46.472 421.054 45.256H423.622C423.75 45.8 424.054 46.272 424.534 46.672C425.014 47.056 425.646 47.248 426.43 47.248C427.198 47.248 427.758 47.088 428.11 46.768C428.462 46.448 428.638 46.08 428.638 45.664C428.638 45.056 428.39 44.648 427.894 44.44C427.414 44.216 426.742 44.016 425.878 43.84C425.206 43.696 424.534 43.504 423.862 43.264C423.206 43.024 422.654 42.688 422.206 42.256C421.774 41.808 421.558 41.208 421.558 40.456C421.558 39.416 421.958 38.552 422.758 37.864C423.558 37.16 424.678 36.808 426.118 36.808C427.446 36.808 428.518 37.128 429.334 37.768C430.166 38.408 430.654 39.312 430.798 40.48H428.35C428.27 39.968 428.03 39.568 427.63 39.28C427.246 38.992 426.726 38.848 426.07 38.848C425.43 38.848 424.934 38.984 424.582 39.256C424.23 39.512 424.054 39.848 424.054 40.264C424.054 40.68 424.294 41.008 424.774 41.248C425.27 41.488 425.918 41.704 426.718 41.896C427.518 42.072 428.254 42.28 428.926 42.52C429.614 42.744 430.166 43.08 430.582 43.528C430.998 43.976 431.206 44.632 431.206 45.496C431.222 46.584 430.798 47.488 429.934 48.208C429.086 48.928 427.926 49.288 426.454 49.288ZM433.983 49V31.72H436.527V39.016C436.927 38.328 437.479 37.792 438.183 37.408C438.903 37.008 439.695 36.808 440.559 36.808C441.983 36.808 443.103 37.256 443.919 38.152C444.735 39.048 445.143 40.384 445.143 42.16V49H442.623V42.424C442.623 40.12 441.703 38.968 439.863 38.968C438.903 38.968 438.103 39.304 437.463 39.976C436.839 40.648 436.527 41.608 436.527 42.856V49H433.983ZM449.579 34.84C449.099 34.84 448.699 34.696 448.379 34.408C448.075 34.104 447.923 33.728 447.923 33.28C447.923 32.832 448.075 32.464 448.379 32.176C448.699 31.872 449.099 31.72 449.579 31.72C450.059 31.72 450.451 31.872 450.755 32.176C451.075 32.464 451.235 32.832 451.235 33.28C451.235 33.728 451.075 34.104 450.755 34.408C450.451 34.696 450.059 34.84 449.579 34.84ZM448.307 49V37.096H450.851V49H448.307ZM454.21 54.28V37.096H456.49L456.754 38.944C457.138 38.384 457.666 37.888 458.338 37.456C459.01 37.024 459.874 36.808 460.93 36.808C462.082 36.808 463.098 37.08 463.978 37.624C464.858 38.168 465.546 38.912 466.042 39.856C466.554 40.8 466.81 41.872 466.81 43.072C466.81 44.272 466.554 45.344 466.042 46.288C465.546 47.216 464.858 47.952 463.978 48.496C463.098 49.024 462.074 49.288 460.906 49.288C459.978 49.288 459.154 49.104 458.434 48.736C457.73 48.368 457.17 47.848 456.754 47.176V54.28H454.21ZM460.474 47.08C461.562 47.08 462.458 46.712 463.162 45.976C463.866 45.224 464.218 44.248 464.218 43.048C464.218 42.264 464.058 41.568 463.738 40.96C463.418 40.352 462.978 39.88 462.418 39.544C461.858 39.192 461.21 39.016 460.474 39.016C459.386 39.016 458.49 39.392 457.786 40.144C457.098 40.896 456.754 41.864 456.754 43.048C456.754 44.248 457.098 45.224 457.786 45.976C458.49 46.712 459.386 47.08 460.474 47.08ZM302.701 80.288C301.533 80.288 300.485 80.024 299.557 79.496C298.645 78.968 297.925 78.24 297.397 77.312C296.885 76.368 296.629 75.28 296.629 74.048C296.629 72.816 296.885 71.736 297.397 70.808C297.925 69.864 298.645 69.128 299.557 68.6C300.485 68.072 301.533 67.808 302.701 67.808C304.173 67.808 305.405 68.192 306.397 68.96C307.405 69.728 308.053 70.768 308.341 72.08H305.677C305.517 71.424 305.165 70.912 304.621 70.544C304.077 70.176 303.437 69.992 302.701 69.992C302.077 69.992 301.501 70.152 300.973 70.472C300.445 70.776 300.021 71.232 299.701 71.84C299.381 72.432 299.221 73.168 299.221 74.048C299.221 74.928 299.381 75.672 299.701 76.28C300.021 76.872 300.445 77.328 300.973 77.648C301.501 77.968 302.077 78.128 302.701 78.128C303.437 78.128 304.077 77.944 304.621 77.576C305.165 77.208 305.517 76.688 305.677 76.016H308.341C308.069 77.296 307.429 78.328 306.421 79.112C305.413 79.896 304.173 80.288 302.701 80.288ZM315.132 80.288C314.124 80.288 313.292 80.12 312.636 79.784C311.98 79.448 311.492 79.008 311.172 78.464C310.852 77.904 310.692 77.296 310.692 76.64C310.692 75.488 311.14 74.576 312.036 73.904C312.932 73.232 314.212 72.896 315.876 72.896H318.996V72.68C318.996 71.752 318.74 71.056 318.228 70.592C317.732 70.128 317.084 69.896 316.284 69.896C315.58 69.896 314.964 70.072 314.436 70.424C313.924 70.76 313.612 71.264 313.5 71.936H310.956C311.036 71.072 311.324 70.336 311.82 69.728C312.332 69.104 312.972 68.632 313.74 68.312C314.524 67.976 315.38 67.808 316.308 67.808C317.972 67.808 319.26 68.248 320.172 69.128C321.084 69.992 321.54 71.176 321.54 72.68V80H319.332L319.116 77.96C318.78 78.616 318.292 79.168 317.652 79.616C317.012 80.064 316.172 80.288 315.132 80.288ZM315.636 78.224C316.324 78.224 316.9 78.064 317.364 77.744C317.844 77.408 318.212 76.968 318.468 76.424C318.74 75.88 318.908 75.28 318.972 74.624H316.14C315.132 74.624 314.412 74.8 313.98 75.152C313.564 75.504 313.356 75.944 313.356 76.472C313.356 77.016 313.556 77.448 313.956 77.768C314.372 78.072 314.932 78.224 315.636 78.224ZM324.506 80V68.096H326.762L326.954 70.184C327.322 69.448 327.858 68.872 328.562 68.456C329.282 68.024 330.106 67.808 331.034 67.808C332.474 67.808 333.602 68.256 334.418 69.152C335.25 70.048 335.666 71.384 335.666 73.16V80H333.146V73.424C333.146 71.12 332.202 69.968 330.314 69.968C329.37 69.968 328.586 70.304 327.962 70.976C327.354 71.648 327.05 72.608 327.05 73.856V80H324.506ZM344.71 85.28V68.096H346.99L347.254 69.944C347.638 69.384 348.166 68.888 348.838 68.456C349.51 68.024 350.374 67.808 351.43 67.808C352.582 67.808 353.598 68.08 354.478 68.624C355.358 69.168 356.046 69.912 356.542 70.856C357.054 71.8 357.31 72.872 357.31 74.072C357.31 75.272 357.054 76.344 356.542 77.288C356.046 78.216 355.358 78.952 354.478 79.496C353.598 80.024 352.574 80.288 351.406 80.288C350.478 80.288 349.654 80.104 348.934 79.736C348.23 79.368 347.67 78.848 347.254 78.176V85.28H344.71ZM350.974 78.08C352.062 78.08 352.958 77.712 353.662 76.976C354.366 76.224 354.718 75.248 354.718 74.048C354.718 73.264 354.558 72.568 354.238 71.96C353.918 71.352 353.478 70.88 352.918 70.544C352.358 70.192 351.71 70.016 350.974 70.016C349.886 70.016 348.99 70.392 348.286 71.144C347.598 71.896 347.254 72.864 347.254 74.048C347.254 75.248 347.598 76.224 348.286 76.976C348.99 77.712 349.886 78.08 350.974 78.08ZM364.093 80.288C363.085 80.288 362.253 80.12 361.597 79.784C360.941 79.448 360.453 79.008 360.133 78.464C359.813 77.904 359.653 77.296 359.653 76.64C359.653 75.488 360.101 74.576 360.997 73.904C361.893 73.232 363.173 72.896 364.837 72.896H367.957V72.68C367.957 71.752 367.701 71.056 367.189 70.592C366.693 70.128 366.045 69.896 365.245 69.896C364.541 69.896 363.925 70.072 363.397 70.424C362.885 70.76 362.573 71.264 362.461 71.936H359.917C359.997 71.072 360.285 70.336 360.781 69.728C361.293 69.104 361.933 68.632 362.701 68.312C363.485 67.976 364.341 67.808 365.269 67.808C366.933 67.808 368.221 68.248 369.133 69.128C370.045 69.992 370.501 71.176 370.501 72.68V80H368.293L368.077 77.96C367.741 78.616 367.253 79.168 366.613 79.616C365.973 80.064 365.133 80.288 364.093 80.288ZM364.597 78.224C365.285 78.224 365.861 78.064 366.325 77.744C366.805 77.408 367.173 76.968 367.429 76.424C367.701 75.88 367.869 75.28 367.933 74.624H365.101C364.093 74.624 363.373 74.8 362.941 75.152C362.525 75.504 362.317 75.944 362.317 76.472C362.317 77.016 362.517 77.448 362.917 77.768C363.333 78.072 363.893 78.224 364.597 78.224ZM373.467 80V68.096H375.747L375.963 70.352C376.379 69.568 376.955 68.952 377.691 68.504C378.443 68.04 379.347 67.808 380.403 67.808V70.472H379.707C379.003 70.472 378.371 70.592 377.811 70.832C377.267 71.056 376.827 71.448 376.491 72.008C376.171 72.552 376.011 73.312 376.011 74.288V80H373.467ZM387.577 80C386.409 80 385.481 79.72 384.793 79.16C384.105 78.584 383.761 77.568 383.761 76.112V70.232H381.721V68.096H383.761L384.073 65.072H386.305V68.096H389.665V70.232H386.305V76.112C386.305 76.768 386.441 77.224 386.713 77.48C387.001 77.72 387.489 77.84 388.177 77.84H389.545V80H387.577ZM393.728 65.84C393.248 65.84 392.848 65.696 392.528 65.408C392.224 65.104 392.072 64.728 392.072 64.28C392.072 63.832 392.224 63.464 392.528 63.176C392.848 62.872 393.248 62.72 393.728 62.72C394.208 62.72 394.6 62.872 394.904 63.176C395.224 63.464 395.384 63.832 395.384 64.28C395.384 64.728 395.224 65.104 394.904 65.408C394.6 65.696 394.208 65.84 393.728 65.84ZM392.456 80V68.096H395V80H392.456ZM403.998 80.288C402.83 80.288 401.782 80.024 400.854 79.496C399.942 78.968 399.222 78.24 398.694 77.312C398.182 76.368 397.926 75.28 397.926 74.048C397.926 72.816 398.182 71.736 398.694 70.808C399.222 69.864 399.942 69.128 400.854 68.6C401.782 68.072 402.83 67.808 403.998 67.808C405.47 67.808 406.702 68.192 407.694 68.96C408.702 69.728 409.35 70.768 409.638 72.08H406.974C406.814 71.424 406.462 70.912 405.918 70.544C405.374 70.176 404.734 69.992 403.998 69.992C403.374 69.992 402.798 70.152 402.27 70.472C401.742 70.776 401.318 71.232 400.998 71.84C400.678 72.432 400.518 73.168 400.518 74.048C400.518 74.928 400.678 75.672 400.998 76.28C401.318 76.872 401.742 77.328 402.27 77.648C402.798 77.968 403.374 78.128 403.998 78.128C404.734 78.128 405.374 77.944 405.918 77.576C406.462 77.208 406.814 76.688 406.974 76.016H409.638C409.366 77.296 408.726 78.328 407.718 79.112C406.71 79.896 405.47 80.288 403.998 80.288ZM413.837 65.84C413.357 65.84 412.957 65.696 412.637 65.408C412.333 65.104 412.181 64.728 412.181 64.28C412.181 63.832 412.333 63.464 412.637 63.176C412.957 62.872 413.357 62.72 413.837 62.72C414.317 62.72 414.709 62.872 415.013 63.176C415.333 63.464 415.493 63.832 415.493 64.28C415.493 64.728 415.333 65.104 415.013 65.408C414.709 65.696 414.317 65.84 413.837 65.84ZM412.565 80V68.096H415.109V80H412.565ZM418.467 85.28V68.096H420.747L421.011 69.944C421.395 69.384 421.923 68.888 422.595 68.456C423.267 68.024 424.131 67.808 425.187 67.808C426.339 67.808 427.355 68.08 428.235 68.624C429.115 69.168 429.803 69.912 430.299 70.856C430.811 71.8 431.067 72.872 431.067 74.072C431.067 75.272 430.811 76.344 430.299 77.288C429.803 78.216 429.115 78.952 428.235 79.496C427.355 80.024 426.331 80.288 425.163 80.288C424.235 80.288 423.411 80.104 422.691 79.736C421.987 79.368 421.427 78.848 421.011 78.176V85.28H418.467ZM424.731 78.08C425.819 78.08 426.715 77.712 427.419 76.976C428.123 76.224 428.475 75.248 428.475 74.048C428.475 73.264 428.315 72.568 427.995 71.96C427.675 71.352 427.235 70.88 426.675 70.544C426.115 70.192 425.467 70.016 424.731 70.016C423.643 70.016 422.747 70.392 422.043 71.144C421.355 71.896 421.011 72.864 421.011 74.048C421.011 75.248 421.355 76.224 422.043 76.976C422.747 77.712 423.643 78.08 424.731 78.08ZM437.851 80.288C436.843 80.288 436.011 80.12 435.355 79.784C434.699 79.448 434.211 79.008 433.891 78.464C433.571 77.904 433.411 77.296 433.411 76.64C433.411 75.488 433.859 74.576 434.755 73.904C435.651 73.232 436.931 72.896 438.595 72.896H441.715V72.68C441.715 71.752 441.459 71.056 440.947 70.592C440.451 70.128 439.803 69.896 439.003 69.896C438.299 69.896 437.683 70.072 437.155 70.424C436.643 70.76 436.331 71.264 436.219 71.936H433.675C433.755 71.072 434.043 70.336 434.539 69.728C435.051 69.104 435.691 68.632 436.459 68.312C437.243 67.976 438.099 67.808 439.027 67.808C440.691 67.808 441.979 68.248 442.891 69.128C443.803 69.992 444.259 71.176 444.259 72.68V80H442.051L441.835 77.96C441.499 78.616 441.011 79.168 440.371 79.616C439.731 80.064 438.891 80.288 437.851 80.288ZM438.355 78.224C439.043 78.224 439.619 78.064 440.083 77.744C440.563 77.408 440.931 76.968 441.187 76.424C441.459 75.88 441.627 75.28 441.691 74.624H438.859C437.851 74.624 437.131 74.8 436.699 75.152C436.283 75.504 436.075 75.944 436.075 76.472C436.075 77.016 436.275 77.448 436.675 77.768C437.091 78.072 437.651 78.224 438.355 78.224ZM451.983 80C450.815 80 449.887 79.72 449.199 79.16C448.511 78.584 448.167 77.568 448.167 76.112V70.232H446.127V68.096H448.167L448.479 65.072H450.711V68.096H454.071V70.232H450.711V76.112C450.711 76.768 450.847 77.224 451.119 77.48C451.407 77.72 451.895 77.84 452.583 77.84H453.951V80H451.983ZM461.957 80.288C460.789 80.288 459.749 80.032 458.837 79.52C457.941 78.992 457.237 78.264 456.725 77.336C456.213 76.408 455.957 75.328 455.957 74.096C455.957 72.848 456.205 71.752 456.701 70.808C457.213 69.864 457.917 69.128 458.813 68.6C459.725 68.072 460.781 67.808 461.981 67.808C463.149 67.808 464.165 68.072 465.029 68.6C465.893 69.112 466.565 69.8 467.045 70.664C467.525 71.528 467.765 72.48 467.765 73.52C467.765 73.68 467.757 73.856 467.741 74.048C467.741 74.224 467.733 74.424 467.717 74.648H458.453C458.533 75.8 458.909 76.68 459.581 77.288C460.269 77.88 461.061 78.176 461.957 78.176C462.677 78.176 463.277 78.016 463.757 77.696C464.253 77.36 464.621 76.912 464.861 76.352H467.405C467.085 77.472 466.445 78.408 465.485 79.16C464.541 79.912 463.365 80.288 461.957 80.288ZM461.957 69.896C461.109 69.896 460.357 70.152 459.701 70.664C459.045 71.16 458.645 71.912 458.501 72.92H465.221C465.173 71.992 464.845 71.256 464.237 70.712C463.629 70.168 462.869 69.896 461.957 69.896ZM471.413 80.144C470.933 80.144 470.533 79.992 470.213 79.688C469.909 79.368 469.757 78.992 469.757 78.56C469.757 78.112 469.909 77.736 470.213 77.432C470.533 77.112 470.933 76.952 471.413 76.952C471.893 76.952 472.285 77.112 472.589 77.432C472.893 77.736 473.045 78.112 473.045 78.56C473.045 78.992 472.893 79.368 472.589 79.688C472.285 79.992 471.893 80.144 471.413 80.144Z" fill="white"/>
</svg>
