<svg width="312" height="344" viewBox="0 0 312 344" fill="none" xmlns="http://www.w3.org/2000/svg">
<path d="M290.581 53.4191C292.261 51.7393 292.264 49.0113 290.543 47.3741C266.04 24.0669 235.182 8.47652 201.814 2.60367C167.032 -3.51798 131.209 1.21543 99.2115 16.1609C67.2135 31.1063 40.5917 55.5393 22.9624 86.1408C5.33322 116.742 -2.4488 152.029 0.673532 187.207C3.79586 222.385 17.6712 255.749 40.4146 282.767C63.158 309.785 93.667 329.147 127.797 338.223C161.927 347.299 198.024 345.649 231.184 333.497C262.996 321.839 290.625 301.057 310.64 273.799C312.046 271.884 311.562 269.199 309.613 267.842C307.663 266.484 304.987 266.968 303.578 268.881C284.575 294.691 258.377 314.369 228.224 325.42C196.722 336.964 162.431 338.531 130.008 329.909C97.5849 321.287 68.6018 302.893 46.9959 277.227C25.39 251.56 12.2086 219.865 9.24248 186.446C6.27631 153.028 13.6691 119.506 30.4166 90.4351C47.1641 61.3641 72.4544 38.1532 102.852 23.9552C133.25 9.75727 167.281 5.2606 200.323 11.0761C231.951 16.6427 261.206 31.3997 284.458 53.4591C286.181 55.0941 288.901 55.0989 290.581 53.4191Z" fill="#9246FF" fill-opacity="0.5"/>
</svg>
