<svg width="296" height="46" viewBox="0 0 296 46" fill="none" xmlns="http://www.w3.org/2000/svg">
<path d="M7.704 35.036L0.9 9.8H5.004L10.008 30.68L15.768 9.8H19.98L25.56 30.68L30.564 9.8H34.668L27.756 35H23.292L17.784 15.236L12.096 35L7.704 35.036ZM38.0253 35V9.08H41.8413V20.024C42.4413 18.992 43.2693 18.188 44.3253 17.612C45.4053 17.012 46.5933 16.712 47.8893 16.712C50.0253 16.712 51.7053 17.384 52.9293 18.728C54.1533 20.072 54.7653 22.076 54.7653 24.74V35H50.9853V25.136C50.9853 21.68 49.6053 19.952 46.8453 19.952C45.4053 19.952 44.2053 20.456 43.2453 21.464C42.3093 22.472 41.8413 23.912 41.8413 25.784V35H38.0253ZM60.7852 42.92L65.0692 33.524H64.0252L56.9692 17.144H61.1092L66.5812 30.356L72.3052 17.144H76.3372L64.8172 42.92H60.7852ZM102.357 35.576C99.8928 35.576 97.6688 35.096 95.6848 34.136C93.7008 33.144 92.1168 31.656 90.9328 29.672C89.7808 27.688 89.2048 25.176 89.2048 22.136V1.4H95.3488V22.184C95.3488 24.808 95.9728 26.76 97.2208 28.04C98.5008 29.32 100.261 29.96 102.501 29.96C104.709 29.96 106.453 29.32 107.733 28.04C109.013 26.76 109.653 24.808 109.653 22.184V1.4H115.797V22.136C115.797 25.176 115.189 27.688 113.973 29.672C112.757 31.656 111.125 33.144 109.077 34.136C107.061 35.096 104.821 35.576 102.357 35.576ZM121.925 45.56V11.192H127.397L128.069 14.6C128.837 13.544 129.845 12.616 131.093 11.816C132.373 11.016 134.021 10.616 136.037 10.616C138.277 10.616 140.277 11.16 142.037 12.248C143.797 13.336 145.189 14.824 146.213 16.712C147.237 18.6 147.749 20.744 147.749 23.144C147.749 25.544 147.237 27.688 146.213 29.576C145.189 31.432 143.797 32.904 142.037 33.992C140.277 35.048 138.277 35.576 136.037 35.576C134.245 35.576 132.677 35.24 131.333 34.568C129.989 33.896 128.901 32.952 128.069 31.736V45.56H121.925ZM134.741 30.2C136.693 30.2 138.309 29.544 139.589 28.232C140.869 26.92 141.509 25.224 141.509 23.144C141.509 21.064 140.869 19.352 139.589 18.008C138.309 16.664 136.693 15.992 134.741 15.992C132.757 15.992 131.125 16.664 129.845 18.008C128.597 19.32 127.973 21.016 127.973 23.096C127.973 25.176 128.597 26.888 129.845 28.232C131.125 29.544 132.757 30.2 134.741 30.2ZM163.077 35.576C160.965 35.576 159.109 35.24 157.509 34.568C155.909 33.864 154.629 32.904 153.669 31.688C152.709 30.472 152.133 29.064 151.941 27.464H158.133C158.325 28.392 158.837 29.192 159.669 29.864C160.533 30.504 161.637 30.824 162.981 30.824C164.325 30.824 165.301 30.552 165.909 30.008C166.549 29.464 166.869 28.84 166.869 28.136C166.869 27.112 166.421 26.424 165.525 26.072C164.629 25.688 163.381 25.32 161.781 24.968C160.757 24.744 159.717 24.472 158.661 24.152C157.605 23.832 156.629 23.432 155.733 22.952C154.869 22.44 154.165 21.8 153.621 21.032C153.077 20.232 152.805 19.256 152.805 18.104C152.805 15.992 153.637 14.216 155.301 12.776C156.997 11.336 159.365 10.616 162.405 10.616C165.221 10.616 167.461 11.272 169.125 12.584C170.821 13.896 171.829 15.704 172.149 18.008H166.341C165.989 16.248 164.661 15.368 162.357 15.368C161.205 15.368 160.309 15.592 159.669 16.04C159.061 16.488 158.757 17.048 158.757 17.72C158.757 18.424 159.221 18.984 160.149 19.4C161.077 19.816 162.309 20.2 163.845 20.552C165.509 20.936 167.029 21.368 168.405 21.848C169.813 22.296 170.933 22.984 171.765 23.912C172.597 24.808 173.013 26.104 173.013 27.8C173.045 29.272 172.661 30.6 171.861 31.784C171.061 32.968 169.909 33.896 168.405 34.568C166.901 35.24 165.125 35.576 163.077 35.576ZM190.12 35.576C187.688 35.576 185.544 35.048 183.688 33.992C181.832 32.936 180.36 31.464 179.272 29.576C178.216 27.688 177.688 25.528 177.688 23.096C177.688 20.664 178.216 18.504 179.272 16.616C180.36 14.728 181.832 13.256 183.688 12.2C185.544 11.144 187.688 10.616 190.12 10.616C193.16 10.616 195.72 11.416 197.8 13.016C199.88 14.584 201.208 16.76 201.784 19.544H195.304C194.984 18.392 194.344 17.496 193.384 16.856C192.456 16.184 191.352 15.848 190.072 15.848C188.376 15.848 186.936 16.488 185.752 17.768C184.568 19.048 183.976 20.824 183.976 23.096C183.976 25.368 184.568 27.144 185.752 28.424C186.936 29.704 188.376 30.344 190.072 30.344C191.352 30.344 192.456 30.024 193.384 29.384C194.344 28.744 194.984 27.832 195.304 26.648H201.784C201.208 29.336 199.88 31.496 197.8 33.128C195.72 34.76 193.16 35.576 190.12 35.576ZM215.445 35.576C213.397 35.576 211.717 35.256 210.405 34.616C209.093 33.944 208.117 33.064 207.477 31.976C206.837 30.888 206.517 29.688 206.517 28.376C206.517 26.168 207.381 24.376 209.109 23C210.837 21.624 213.429 20.936 216.885 20.936H222.933V20.36C222.933 18.728 222.469 17.528 221.541 16.76C220.613 15.992 219.461 15.608 218.085 15.608C216.837 15.608 215.749 15.912 214.821 16.52C213.893 17.096 213.317 17.96 213.093 19.112H207.093C207.253 17.384 207.829 15.88 208.821 14.6C209.845 13.32 211.157 12.344 212.757 11.672C214.357 10.968 216.149 10.616 218.133 10.616C221.525 10.616 224.197 11.464 226.149 13.16C228.101 14.856 229.077 17.256 229.077 20.36V35H223.845L223.269 31.16C222.565 32.44 221.573 33.496 220.293 34.328C219.045 35.16 217.429 35.576 215.445 35.576ZM216.837 30.776C218.597 30.776 219.957 30.2 220.917 29.048C221.909 27.896 222.533 26.472 222.789 24.776H217.557C215.925 24.776 214.757 25.08 214.053 25.688C213.349 26.264 212.997 26.984 212.997 27.848C212.997 28.776 213.349 29.496 214.053 30.008C214.757 30.52 215.685 30.776 216.837 30.776ZM234.94 35V0.439999H241.084V35H234.94ZM258.93 35.576C256.53 35.576 254.402 35.064 252.546 34.04C250.69 33.016 249.234 31.576 248.178 29.72C247.122 27.864 246.594 25.72 246.594 23.288C246.594 20.824 247.106 18.632 248.13 16.712C249.186 14.792 250.626 13.304 252.45 12.248C254.306 11.16 256.482 10.616 258.978 10.616C261.314 10.616 263.378 11.128 265.17 12.152C266.962 13.176 268.354 14.584 269.346 16.376C270.37 18.136 270.882 20.104 270.882 22.28C270.882 22.632 270.866 23 270.834 23.384C270.834 23.768 270.818 24.168 270.786 24.584H252.69C252.818 26.44 253.458 27.896 254.61 28.952C255.794 30.008 257.218 30.536 258.882 30.536C260.13 30.536 261.17 30.264 262.002 29.72C262.866 29.144 263.506 28.408 263.922 27.512H270.162C269.714 29.016 268.962 30.392 267.906 31.64C266.882 32.856 265.602 33.816 264.066 34.52C262.562 35.224 260.85 35.576 258.93 35.576ZM258.978 15.608C257.474 15.608 256.146 16.04 254.994 16.904C253.842 17.736 253.106 19.016 252.786 20.744H264.642C264.546 19.176 263.97 17.928 262.914 17C261.858 16.072 260.546 15.608 258.978 15.608ZM278.568 24.536L278.376 16.616H280.584C282.216 16.616 283.704 16.472 285.048 16.184C286.392 15.896 287.464 15.336 288.264 14.504C289.064 13.672 289.464 12.456 289.464 10.856C289.464 9.32 289 8.12 288.072 7.256C287.144 6.36 285.912 5.912 284.376 5.912C282.776 5.912 281.528 6.36 280.632 7.256C279.736 8.12 279.288 9.304 279.288 10.808H273.48C273.448 8.888 273.864 7.176 274.728 5.672C275.592 4.168 276.84 2.984 278.472 2.12C280.136 1.256 282.12 0.823999 284.424 0.823999C286.568 0.823999 288.456 1.224 290.088 2.024C291.752 2.824 293.048 3.976 293.976 5.48C294.936 6.952 295.416 8.76 295.416 10.904C295.416 13.112 294.92 14.936 293.928 16.376C292.968 17.816 291.64 18.888 289.944 19.592C288.28 20.296 286.344 20.664 284.136 20.696L283.992 24.536H278.568ZM281.304 35.336C280.184 35.336 279.256 34.984 278.52 34.28C277.816 33.576 277.464 32.728 277.464 31.736C277.464 30.712 277.816 29.848 278.52 29.144C279.256 28.44 280.184 28.088 281.304 28.088C282.424 28.088 283.336 28.44 284.04 29.144C284.744 29.848 285.096 30.712 285.096 31.736C285.096 32.728 284.744 33.576 284.04 34.28C283.336 34.984 282.424 35.336 281.304 35.336Z" fill="white"/>
</svg>
