<svg width="438" height="46" viewBox="0 0 438 46" fill="none" xmlns="http://www.w3.org/2000/svg">
<path d="M7.704 35.036L0.9 9.8H5.004L10.008 30.68L15.768 9.8H19.98L25.56 30.68L30.564 9.8H34.668L27.756 35H23.292L17.784 15.236L12.096 35L7.704 35.036ZM38.0253 35V9.08H41.8413V20.024C42.4413 18.992 43.2693 18.188 44.3253 17.612C45.4053 17.012 46.5933 16.712 47.8893 16.712C50.0253 16.712 51.7053 17.384 52.9293 18.728C54.1533 20.072 54.7653 22.076 54.7653 24.74V35H50.9853V25.136C50.9853 21.68 49.6053 19.952 46.8453 19.952C45.4053 19.952 44.2053 20.456 43.2453 21.464C42.3093 22.472 41.8413 23.912 41.8413 25.784V35H38.0253ZM67.6117 35.432C65.9077 35.432 64.3717 35.048 63.0037 34.28C61.6597 33.488 60.5917 32.396 59.7997 31.004C59.0077 29.588 58.6117 27.944 58.6117 26.072C58.6117 24.2 59.0077 22.568 59.7997 21.176C60.6157 19.76 61.7077 18.668 63.0757 17.9C64.4437 17.108 65.9677 16.712 67.6477 16.712C69.3517 16.712 70.8757 17.108 72.2197 17.9C73.5877 18.668 74.6677 19.76 75.4597 21.176C76.2757 22.568 76.6837 24.2 76.6837 26.072C76.6837 27.944 76.2757 29.588 75.4597 31.004C74.6677 32.396 73.5877 33.488 72.2197 34.28C70.8517 35.048 69.3157 35.432 67.6117 35.432ZM67.6117 32.156C68.5237 32.156 69.3637 31.928 70.1317 31.472C70.9237 31.016 71.5597 30.344 72.0397 29.456C72.5197 28.544 72.7597 27.416 72.7597 26.072C72.7597 24.728 72.5197 23.612 72.0397 22.724C71.5837 21.812 70.9597 21.128 70.1677 20.672C69.3997 20.216 68.5597 19.988 67.6477 19.988C66.7357 19.988 65.8837 20.216 65.0917 20.672C64.3237 21.128 63.6997 21.812 63.2197 22.724C62.7397 23.612 62.4997 24.728 62.4997 26.072C62.4997 27.416 62.7397 28.544 63.2197 29.456C63.6997 30.344 64.3237 31.016 65.0917 31.472C65.8597 31.928 66.6997 32.156 67.6117 32.156ZM98.3408 35.432C96.5888 35.432 95.0168 35.036 93.6248 34.244C92.2568 33.452 91.1768 32.36 90.3848 30.968C89.6168 29.552 89.2328 27.92 89.2328 26.072C89.2328 24.224 89.6168 22.604 90.3848 21.212C91.1768 19.796 92.2568 18.692 93.6248 17.9C95.0168 17.108 96.5888 16.712 98.3408 16.712C100.549 16.712 102.397 17.288 103.885 18.44C105.397 19.592 106.369 21.152 106.801 23.12H102.805C102.565 22.136 102.037 21.368 101.221 20.816C100.405 20.264 99.4448 19.988 98.3408 19.988C97.4048 19.988 96.5408 20.228 95.7488 20.708C94.9568 21.164 94.3208 21.848 93.8408 22.76C93.3608 23.648 93.1208 24.752 93.1208 26.072C93.1208 27.392 93.3608 28.508 93.8408 29.42C94.3208 30.308 94.9568 30.992 95.7488 31.472C96.5408 31.952 97.4048 32.192 98.3408 32.192C99.4448 32.192 100.405 31.916 101.221 31.364C102.037 30.812 102.565 30.032 102.805 29.024H106.801C106.393 30.944 105.433 32.492 103.921 33.668C102.409 34.844 100.549 35.432 98.3408 35.432ZM116.987 35.432C115.475 35.432 114.227 35.18 113.243 34.676C112.259 34.172 111.527 33.512 111.047 32.696C110.567 31.856 110.327 30.944 110.327 29.96C110.327 28.232 110.999 26.864 112.343 25.856C113.687 24.848 115.607 24.344 118.103 24.344H122.783V24.02C122.783 22.628 122.399 21.584 121.631 20.888C120.887 20.192 119.915 19.844 118.715 19.844C117.659 19.844 116.735 20.108 115.943 20.636C115.175 21.14 114.707 21.896 114.539 22.904H110.723C110.843 21.608 111.275 20.504 112.019 19.592C112.787 18.656 113.747 17.948 114.899 17.468C116.075 16.964 117.359 16.712 118.751 16.712C121.247 16.712 123.179 17.372 124.547 18.692C125.915 19.988 126.599 21.764 126.599 24.02V35H123.287L122.963 31.94C122.459 32.924 121.727 33.752 120.767 34.424C119.807 35.096 118.547 35.432 116.987 35.432ZM117.743 32.336C118.775 32.336 119.639 32.096 120.335 31.616C121.055 31.112 121.607 30.452 121.991 29.636C122.399 28.82 122.651 27.92 122.747 26.936H118.499C116.987 26.936 115.907 27.2 115.259 27.728C114.635 28.256 114.323 28.916 114.323 29.708C114.323 30.524 114.623 31.172 115.223 31.652C115.847 32.108 116.687 32.336 117.743 32.336ZM131.049 35V17.144H134.433L134.721 20.276C135.273 19.172 136.077 18.308 137.133 17.684C138.213 17.036 139.449 16.712 140.841 16.712C143.001 16.712 144.693 17.384 145.917 18.728C147.165 20.072 147.789 22.076 147.789 24.74V35H144.009V25.136C144.009 21.68 142.593 19.952 139.761 19.952C138.345 19.952 137.169 20.456 136.233 21.464C135.321 22.472 134.865 23.912 134.865 25.784V35H131.049ZM162.205 35V1.4H174.637C177.325 1.4 179.549 1.848 181.309 2.744C183.069 3.64 184.381 4.872 185.245 6.44C186.109 8.008 186.541 9.768 186.541 11.72C186.541 13.576 186.125 15.288 185.293 16.856C184.461 18.392 183.165 19.64 181.405 20.6C179.645 21.528 177.389 21.992 174.637 21.992H168.349V35H162.205ZM168.349 17H174.253C176.397 17 177.933 16.536 178.861 15.608C179.821 14.648 180.301 13.352 180.301 11.72C180.301 10.056 179.821 8.76 178.861 7.832C177.933 6.872 176.397 6.392 174.253 6.392H168.349V17ZM197.926 35.576C195.878 35.576 194.198 35.256 192.886 34.616C191.574 33.944 190.598 33.064 189.958 31.976C189.318 30.888 188.998 29.688 188.998 28.376C188.998 26.168 189.862 24.376 191.59 23C193.318 21.624 195.91 20.936 199.366 20.936H205.414V20.36C205.414 18.728 204.95 17.528 204.022 16.76C203.094 15.992 201.942 15.608 200.566 15.608C199.318 15.608 198.23 15.912 197.302 16.52C196.374 17.096 195.798 17.96 195.574 19.112H189.574C189.734 17.384 190.31 15.88 191.302 14.6C192.326 13.32 193.638 12.344 195.238 11.672C196.838 10.968 198.63 10.616 200.614 10.616C204.006 10.616 206.678 11.464 208.63 13.16C210.582 14.856 211.558 17.256 211.558 20.36V35H206.326L205.75 31.16C205.046 32.44 204.054 33.496 202.774 34.328C201.526 35.16 199.91 35.576 197.926 35.576ZM199.318 30.776C201.078 30.776 202.438 30.2 203.398 29.048C204.39 27.896 205.014 26.472 205.27 24.776H200.038C198.406 24.776 197.238 25.08 196.534 25.688C195.83 26.264 195.478 26.984 195.478 27.848C195.478 28.776 195.83 29.496 196.534 30.008C197.238 30.52 198.166 30.776 199.318 30.776ZM217.421 35V11.192H222.893L223.469 15.656C224.333 14.12 225.501 12.904 226.973 12.008C228.477 11.08 230.237 10.616 232.253 10.616V17.096H230.525C229.181 17.096 227.981 17.304 226.925 17.72C225.869 18.136 225.037 18.856 224.429 19.88C223.853 20.904 223.565 22.328 223.565 24.152V35H217.421ZM247.06 35C244.564 35 242.564 34.392 241.06 33.176C239.556 31.96 238.804 29.8 238.804 26.696V16.328H234.724V11.192H238.804L239.524 4.808H244.948V11.192H251.38V16.328H244.948V26.744C244.948 27.896 245.188 28.696 245.668 29.144C246.18 29.56 247.044 29.768 248.26 29.768H251.236V35H247.06ZM259.967 7.496C258.847 7.496 257.919 7.16 257.183 6.488C256.479 5.816 256.127 4.968 256.127 3.944C256.127 2.92 256.479 2.088 257.183 1.448C257.919 0.775998 258.847 0.439999 259.967 0.439999C261.087 0.439999 261.999 0.775998 262.703 1.448C263.439 2.088 263.807 2.92 263.807 3.944C263.807 4.968 263.439 5.816 262.703 6.488C261.999 7.16 261.087 7.496 259.967 7.496ZM256.895 35V11.192H263.039V35H256.895ZM281.116 35.576C278.684 35.576 276.54 35.048 274.684 33.992C272.828 32.936 271.356 31.464 270.268 29.576C269.212 27.688 268.684 25.528 268.684 23.096C268.684 20.664 269.212 18.504 270.268 16.616C271.356 14.728 272.828 13.256 274.684 12.2C276.54 11.144 278.684 10.616 281.116 10.616C284.156 10.616 286.716 11.416 288.796 13.016C290.876 14.584 292.204 16.76 292.78 19.544H286.3C285.98 18.392 285.34 17.496 284.38 16.856C283.452 16.184 282.348 15.848 281.068 15.848C279.372 15.848 277.932 16.488 276.748 17.768C275.564 19.048 274.972 20.824 274.972 23.096C274.972 25.368 275.564 27.144 276.748 28.424C277.932 29.704 279.372 30.344 281.068 30.344C282.348 30.344 283.452 30.024 284.38 29.384C285.34 28.744 285.98 27.832 286.3 26.648H292.78C292.204 29.336 290.876 31.496 288.796 33.128C286.716 34.76 284.156 35.576 281.116 35.576ZM301.545 7.496C300.425 7.496 299.497 7.16 298.761 6.488C298.057 5.816 297.705 4.968 297.705 3.944C297.705 2.92 298.057 2.088 298.761 1.448C299.497 0.775998 300.425 0.439999 301.545 0.439999C302.665 0.439999 303.577 0.775998 304.281 1.448C305.017 2.088 305.385 2.92 305.385 3.944C305.385 4.968 305.017 5.816 304.281 6.488C303.577 7.16 302.665 7.496 301.545 7.496ZM298.473 35V11.192H304.617V35H298.473ZM311.03 45.56V11.192H316.502L317.174 14.6C317.942 13.544 318.95 12.616 320.198 11.816C321.478 11.016 323.126 10.616 325.142 10.616C327.382 10.616 329.382 11.16 331.142 12.248C332.902 13.336 334.294 14.824 335.318 16.712C336.342 18.6 336.854 20.744 336.854 23.144C336.854 25.544 336.342 27.688 335.318 29.576C334.294 31.432 332.902 32.904 331.142 33.992C329.382 35.048 327.382 35.576 325.142 35.576C323.35 35.576 321.782 35.24 320.438 34.568C319.094 33.896 318.006 32.952 317.174 31.736V45.56H311.03ZM323.846 30.2C325.798 30.2 327.414 29.544 328.694 28.232C329.974 26.92 330.614 25.224 330.614 23.144C330.614 21.064 329.974 19.352 328.694 18.008C327.414 16.664 325.798 15.992 323.846 15.992C321.862 15.992 320.23 16.664 318.95 18.008C317.702 19.32 317.078 21.016 317.078 23.096C317.078 25.176 317.702 26.888 318.95 28.232C320.23 29.544 321.862 30.2 323.846 30.2ZM350.551 35.576C348.503 35.576 346.823 35.256 345.511 34.616C344.199 33.944 343.223 33.064 342.583 31.976C341.943 30.888 341.623 29.688 341.623 28.376C341.623 26.168 342.487 24.376 344.215 23C345.943 21.624 348.535 20.936 351.991 20.936H358.039V20.36C358.039 18.728 357.575 17.528 356.647 16.76C355.719 15.992 354.567 15.608 353.191 15.608C351.943 15.608 350.855 15.912 349.927 16.52C348.999 17.096 348.423 17.96 348.199 19.112H342.199C342.359 17.384 342.935 15.88 343.927 14.6C344.951 13.32 346.263 12.344 347.863 11.672C349.463 10.968 351.255 10.616 353.239 10.616C356.631 10.616 359.303 11.464 361.255 13.16C363.207 14.856 364.183 17.256 364.183 20.36V35H358.951L358.375 31.16C357.671 32.44 356.679 33.496 355.399 34.328C354.151 35.16 352.535 35.576 350.551 35.576ZM351.943 30.776C353.703 30.776 355.063 30.2 356.023 29.048C357.015 27.896 357.639 26.472 357.895 24.776H352.663C351.031 24.776 349.863 25.08 349.159 25.688C348.455 26.264 348.103 26.984 348.103 27.848C348.103 28.776 348.455 29.496 349.159 30.008C349.863 30.52 350.791 30.776 351.943 30.776ZM380.326 35C377.83 35 375.83 34.392 374.326 33.176C372.822 31.96 372.07 29.8 372.07 26.696V16.328H367.99V11.192H372.07L372.79 4.808H378.214V11.192H384.646V16.328H378.214V26.744C378.214 27.896 378.454 28.696 378.934 29.144C379.446 29.56 380.31 29.768 381.526 29.768H384.502V35H380.326ZM400.879 35.576C398.479 35.576 396.351 35.064 394.495 34.04C392.639 33.016 391.183 31.576 390.127 29.72C389.071 27.864 388.543 25.72 388.543 23.288C388.543 20.824 389.055 18.632 390.079 16.712C391.135 14.792 392.575 13.304 394.399 12.248C396.255 11.16 398.431 10.616 400.927 10.616C403.263 10.616 405.327 11.128 407.119 12.152C408.911 13.176 410.303 14.584 411.295 16.376C412.319 18.136 412.831 20.104 412.831 22.28C412.831 22.632 412.815 23 412.783 23.384C412.783 23.768 412.767 24.168 412.735 24.584H394.639C394.767 26.44 395.407 27.896 396.559 28.952C397.743 30.008 399.167 30.536 400.831 30.536C402.079 30.536 403.119 30.264 403.951 29.72C404.815 29.144 405.455 28.408 405.871 27.512H412.111C411.663 29.016 410.911 30.392 409.855 31.64C408.831 32.856 407.551 33.816 406.015 34.52C404.511 35.224 402.799 35.576 400.879 35.576ZM400.927 15.608C399.423 15.608 398.095 16.04 396.943 16.904C395.791 17.736 395.055 19.016 394.735 20.744H406.591C406.495 19.176 405.919 17.928 404.863 17C403.807 16.072 402.495 15.608 400.927 15.608ZM420.517 24.536L420.325 16.616H422.533C424.165 16.616 425.653 16.472 426.997 16.184C428.341 15.896 429.413 15.336 430.213 14.504C431.013 13.672 431.413 12.456 431.413 10.856C431.413 9.32 430.949 8.12 430.021 7.256C429.093 6.36 427.861 5.912 426.325 5.912C424.725 5.912 423.477 6.36 422.581 7.256C421.685 8.12 421.237 9.304 421.237 10.808H415.429C415.397 8.888 415.813 7.176 416.677 5.672C417.541 4.168 418.789 2.984 420.421 2.12C422.085 1.256 424.069 0.823999 426.373 0.823999C428.517 0.823999 430.405 1.224 432.037 2.024C433.701 2.824 434.997 3.976 435.925 5.48C436.885 6.952 437.365 8.76 437.365 10.904C437.365 13.112 436.869 14.936 435.877 16.376C434.917 17.816 433.589 18.888 431.893 19.592C430.229 20.296 428.293 20.664 426.085 20.696L425.941 24.536H420.517ZM423.253 35.336C422.133 35.336 421.205 34.984 420.469 34.28C419.765 33.576 419.413 32.728 419.413 31.736C419.413 30.712 419.765 29.848 420.469 29.144C421.205 28.44 422.133 28.088 423.253 28.088C424.373 28.088 425.285 28.44 425.989 29.144C426.693 29.848 427.045 30.712 427.045 31.736C427.045 32.728 426.693 33.576 425.989 34.28C425.285 34.984 424.373 35.336 423.253 35.336Z" fill="white"/>
</svg>
