<svg width="347" height="46" viewBox="0 0 347 46" fill="none" xmlns="http://www.w3.org/2000/svg">
<path d="M7.704 35.036L0.9 9.8H5.004L10.008 30.68L15.768 9.8H19.98L25.56 30.68L30.564 9.8H34.668L27.756 35H23.292L17.784 15.236L12.096 35L7.704 35.036ZM38.0253 35V9.08H41.8413V20.024C42.4413 18.992 43.2693 18.188 44.3253 17.612C45.4053 17.012 46.5933 16.712 47.8893 16.712C50.0253 16.712 51.7053 17.384 52.9293 18.728C54.1533 20.072 54.7653 22.076 54.7653 24.74V35H50.9853V25.136C50.9853 21.68 49.6053 19.952 46.8453 19.952C45.4053 19.952 44.2053 20.456 43.2453 21.464C42.3093 22.472 41.8413 23.912 41.8413 25.784V35H38.0253ZM65.3077 35.432C63.7957 35.432 62.5477 35.18 61.5637 34.676C60.5797 34.172 59.8477 33.512 59.3677 32.696C58.8877 31.856 58.6477 30.944 58.6477 29.96C58.6477 28.232 59.3197 26.864 60.6637 25.856C62.0077 24.848 63.9277 24.344 66.4237 24.344H71.1037V24.02C71.1037 22.628 70.7197 21.584 69.9517 20.888C69.2077 20.192 68.2357 19.844 67.0357 19.844C65.9797 19.844 65.0557 20.108 64.2637 20.636C63.4957 21.14 63.0277 21.896 62.8597 22.904H59.0437C59.1637 21.608 59.5957 20.504 60.3397 19.592C61.1077 18.656 62.0677 17.948 63.2197 17.468C64.3957 16.964 65.6797 16.712 67.0717 16.712C69.5677 16.712 71.4997 17.372 72.8677 18.692C74.2357 19.988 74.9197 21.764 74.9197 24.02V35H71.6077L71.2837 31.94C70.7797 32.924 70.0477 33.752 69.0877 34.424C68.1277 35.096 66.8677 35.432 65.3077 35.432ZM66.0637 32.336C67.0957 32.336 67.9597 32.096 68.6557 31.616C69.3757 31.112 69.9277 30.452 70.3117 29.636C70.7197 28.82 70.9717 27.92 71.0677 26.936H66.8197C65.3077 26.936 64.2277 27.2 63.5797 27.728C62.9557 28.256 62.6437 28.916 62.6437 29.708C62.6437 30.524 62.9437 31.172 63.5437 31.652C64.1677 32.108 65.0077 32.336 66.0637 32.336ZM86.5055 35C84.7535 35 83.3615 34.58 82.3295 33.74C81.2975 32.876 80.7815 31.352 80.7815 29.168V20.348H77.7215V17.144H80.7815L81.2495 12.608H84.5975V17.144H89.6375V20.348H84.5975V29.168C84.5975 30.152 84.8015 30.836 85.2095 31.22C85.6415 31.58 86.3735 31.76 87.4055 31.76H89.4575V35H86.5055ZM104.802 13.76C104.082 13.76 103.482 13.544 103.002 13.112C102.546 12.656 102.318 12.092 102.318 11.42C102.318 10.748 102.546 10.196 103.002 9.764C103.482 9.308 104.082 9.08 104.802 9.08C105.522 9.08 106.11 9.308 106.566 9.764C107.046 10.196 107.286 10.748 107.286 11.42C107.286 12.092 107.046 12.656 106.566 13.112C106.11 13.544 105.522 13.76 104.802 13.76ZM102.894 35V17.144H106.71V35H102.894ZM118.876 35.432C116.62 35.432 114.76 34.88 113.296 33.776C111.832 32.672 110.992 31.208 110.776 29.384H114.628C114.82 30.2 115.276 30.908 115.996 31.508C116.716 32.084 117.664 32.372 118.84 32.372C119.992 32.372 120.832 32.132 121.36 31.652C121.888 31.172 122.152 30.62 122.152 29.996C122.152 29.084 121.78 28.472 121.036 28.16C120.316 27.824 119.308 27.524 118.012 27.26C117.004 27.044 115.996 26.756 114.988 26.396C114.004 26.036 113.176 25.532 112.504 24.884C111.856 24.212 111.532 23.312 111.532 22.184C111.532 20.624 112.132 19.328 113.332 18.296C114.532 17.24 116.212 16.712 118.372 16.712C120.364 16.712 121.972 17.192 123.196 18.152C124.444 19.112 125.176 20.468 125.392 22.22H121.72C121.6 21.452 121.24 20.852 120.64 20.42C120.064 19.988 119.284 19.772 118.3 19.772C117.34 19.772 116.596 19.976 116.068 20.384C115.54 20.768 115.276 21.272 115.276 21.896C115.276 22.52 115.636 23.012 116.356 23.372C117.1 23.732 118.072 24.056 119.272 24.344C120.472 24.608 121.576 24.92 122.584 25.28C123.616 25.616 124.444 26.12 125.068 26.792C125.692 27.464 126.004 28.448 126.004 29.744C126.028 31.376 125.392 32.732 124.096 33.812C122.824 34.892 121.084 35.432 118.876 35.432ZM153.052 35.576C150.588 35.576 148.364 35.096 146.38 34.136C144.396 33.144 142.812 31.656 141.628 29.672C140.476 27.688 139.9 25.176 139.9 22.136V1.4H146.044V22.184C146.044 24.808 146.668 26.76 147.916 28.04C149.196 29.32 150.956 29.96 153.196 29.96C155.404 29.96 157.148 29.32 158.428 28.04C159.708 26.76 160.348 24.808 160.348 22.184V1.4H166.492V22.136C166.492 25.176 165.884 27.688 164.668 29.672C163.452 31.656 161.82 33.144 159.772 34.136C157.756 35.096 155.516 35.576 153.052 35.576ZM172.62 45.56V11.192H178.092L178.764 14.6C179.532 13.544 180.54 12.616 181.788 11.816C183.068 11.016 184.716 10.616 186.732 10.616C188.972 10.616 190.972 11.16 192.732 12.248C194.492 13.336 195.884 14.824 196.908 16.712C197.932 18.6 198.444 20.744 198.444 23.144C198.444 25.544 197.932 27.688 196.908 29.576C195.884 31.432 194.492 32.904 192.732 33.992C190.972 35.048 188.972 35.576 186.732 35.576C184.94 35.576 183.372 35.24 182.028 34.568C180.684 33.896 179.596 32.952 178.764 31.736V45.56H172.62ZM185.436 30.2C187.388 30.2 189.004 29.544 190.284 28.232C191.564 26.92 192.204 25.224 192.204 23.144C192.204 21.064 191.564 19.352 190.284 18.008C189.004 16.664 187.388 15.992 185.436 15.992C183.452 15.992 181.82 16.664 180.54 18.008C179.292 19.32 178.668 21.016 178.668 23.096C178.668 25.176 179.292 26.888 180.54 28.232C181.82 29.544 183.452 30.2 185.436 30.2ZM213.773 35.576C211.661 35.576 209.805 35.24 208.205 34.568C206.605 33.864 205.325 32.904 204.365 31.688C203.405 30.472 202.829 29.064 202.637 27.464H208.829C209.021 28.392 209.533 29.192 210.365 29.864C211.229 30.504 212.333 30.824 213.677 30.824C215.021 30.824 215.997 30.552 216.605 30.008C217.245 29.464 217.565 28.84 217.565 28.136C217.565 27.112 217.117 26.424 216.221 26.072C215.325 25.688 214.077 25.32 212.477 24.968C211.453 24.744 210.413 24.472 209.357 24.152C208.301 23.832 207.325 23.432 206.429 22.952C205.565 22.44 204.861 21.8 204.317 21.032C203.773 20.232 203.501 19.256 203.501 18.104C203.501 15.992 204.333 14.216 205.997 12.776C207.693 11.336 210.061 10.616 213.101 10.616C215.917 10.616 218.157 11.272 219.821 12.584C221.517 13.896 222.525 15.704 222.845 18.008H217.037C216.685 16.248 215.357 15.368 213.053 15.368C211.901 15.368 211.005 15.592 210.365 16.04C209.757 16.488 209.453 17.048 209.453 17.72C209.453 18.424 209.917 18.984 210.845 19.4C211.773 19.816 213.005 20.2 214.541 20.552C216.205 20.936 217.725 21.368 219.101 21.848C220.509 22.296 221.629 22.984 222.461 23.912C223.293 24.808 223.709 26.104 223.709 27.8C223.741 29.272 223.357 30.6 222.557 31.784C221.757 32.968 220.605 33.896 219.101 34.568C217.597 35.24 215.821 35.576 213.773 35.576ZM240.815 35.576C238.383 35.576 236.239 35.048 234.383 33.992C232.527 32.936 231.055 31.464 229.967 29.576C228.911 27.688 228.383 25.528 228.383 23.096C228.383 20.664 228.911 18.504 229.967 16.616C231.055 14.728 232.527 13.256 234.383 12.2C236.239 11.144 238.383 10.616 240.815 10.616C243.855 10.616 246.415 11.416 248.495 13.016C250.575 14.584 251.903 16.76 252.479 19.544H245.999C245.679 18.392 245.039 17.496 244.079 16.856C243.151 16.184 242.047 15.848 240.767 15.848C239.071 15.848 237.631 16.488 236.447 17.768C235.263 19.048 234.671 20.824 234.671 23.096C234.671 25.368 235.263 27.144 236.447 28.424C237.631 29.704 239.071 30.344 240.767 30.344C242.047 30.344 243.151 30.024 244.079 29.384C245.039 28.744 245.679 27.832 245.999 26.648H252.479C251.903 29.336 250.575 31.496 248.495 33.128C246.415 34.76 243.855 35.576 240.815 35.576ZM266.141 35.576C264.093 35.576 262.413 35.256 261.101 34.616C259.789 33.944 258.813 33.064 258.173 31.976C257.533 30.888 257.213 29.688 257.213 28.376C257.213 26.168 258.077 24.376 259.805 23C261.533 21.624 264.125 20.936 267.581 20.936H273.629V20.36C273.629 18.728 273.165 17.528 272.237 16.76C271.309 15.992 270.157 15.608 268.781 15.608C267.533 15.608 266.445 15.912 265.517 16.52C264.589 17.096 264.013 17.96 263.789 19.112H257.789C257.949 17.384 258.525 15.88 259.517 14.6C260.541 13.32 261.853 12.344 263.453 11.672C265.053 10.968 266.845 10.616 268.829 10.616C272.221 10.616 274.893 11.464 276.845 13.16C278.797 14.856 279.773 17.256 279.773 20.36V35H274.541L273.965 31.16C273.261 32.44 272.269 33.496 270.989 34.328C269.741 35.16 268.125 35.576 266.141 35.576ZM267.533 30.776C269.293 30.776 270.653 30.2 271.613 29.048C272.605 27.896 273.229 26.472 273.485 24.776H268.253C266.621 24.776 265.453 25.08 264.749 25.688C264.045 26.264 263.693 26.984 263.693 27.848C263.693 28.776 264.045 29.496 264.749 30.008C265.453 30.52 266.381 30.776 267.533 30.776ZM285.636 35V0.439999H291.78V35H285.636ZM309.626 35.576C307.226 35.576 305.098 35.064 303.242 34.04C301.386 33.016 299.93 31.576 298.874 29.72C297.818 27.864 297.29 25.72 297.29 23.288C297.29 20.824 297.802 18.632 298.826 16.712C299.882 14.792 301.322 13.304 303.146 12.248C305.002 11.16 307.178 10.616 309.674 10.616C312.01 10.616 314.074 11.128 315.866 12.152C317.658 13.176 319.05 14.584 320.042 16.376C321.066 18.136 321.578 20.104 321.578 22.28C321.578 22.632 321.562 23 321.53 23.384C321.53 23.768 321.514 24.168 321.482 24.584H303.386C303.514 26.44 304.154 27.896 305.306 28.952C306.49 30.008 307.914 30.536 309.578 30.536C310.826 30.536 311.866 30.264 312.698 29.72C313.562 29.144 314.202 28.408 314.618 27.512H320.858C320.41 29.016 319.658 30.392 318.602 31.64C317.578 32.856 316.298 33.816 314.762 34.52C313.258 35.224 311.546 35.576 309.626 35.576ZM309.674 15.608C308.17 15.608 306.842 16.04 305.69 16.904C304.538 17.736 303.802 19.016 303.482 20.744H315.338C315.242 19.176 314.666 17.928 313.61 17C312.554 16.072 311.242 15.608 309.674 15.608ZM329.264 24.536L329.072 16.616H331.28C332.912 16.616 334.4 16.472 335.744 16.184C337.088 15.896 338.16 15.336 338.96 14.504C339.76 13.672 340.16 12.456 340.16 10.856C340.16 9.32 339.696 8.12 338.768 7.256C337.84 6.36 336.608 5.912 335.072 5.912C333.472 5.912 332.224 6.36 331.328 7.256C330.432 8.12 329.984 9.304 329.984 10.808H324.176C324.144 8.888 324.56 7.176 325.424 5.672C326.288 4.168 327.536 2.984 329.168 2.12C330.832 1.256 332.816 0.823999 335.12 0.823999C337.264 0.823999 339.152 1.224 340.784 2.024C342.448 2.824 343.744 3.976 344.672 5.48C345.632 6.952 346.112 8.76 346.112 10.904C346.112 13.112 345.616 14.936 344.624 16.376C343.664 17.816 342.336 18.888 340.64 19.592C338.976 20.296 337.04 20.664 334.832 20.696L334.688 24.536H329.264ZM332 35.336C330.88 35.336 329.952 34.984 329.216 34.28C328.512 33.576 328.16 32.728 328.16 31.736C328.16 30.712 328.512 29.848 329.216 29.144C329.952 28.44 330.88 28.088 332 28.088C333.12 28.088 334.032 28.44 334.736 29.144C335.44 29.848 335.792 30.712 335.792 31.736C335.792 32.728 335.44 33.576 334.736 34.28C334.032 34.984 333.12 35.336 332 35.336Z" fill="white"/>
</svg>
