<svg width="211" height="46" viewBox="0 0 211 46" fill="none" xmlns="http://www.w3.org/2000/svg">
<path d="M12.736 35.576C10.272 35.576 8.096 35.16 6.208 34.328C4.32 33.464 2.832 32.248 1.744 30.68C0.656 29.08 0.0960001 27.144 0.0640001 24.872H6.544C6.608 26.44 7.168 27.768 8.224 28.856C9.312 29.912 10.8 30.44 12.688 30.44C14.32 30.44 15.616 30.056 16.576 29.288C17.536 28.488 18.016 27.432 18.016 26.12C18.016 24.744 17.584 23.672 16.72 22.904C15.888 22.136 14.768 21.512 13.36 21.032C11.952 20.552 10.448 20.04 8.848 19.496C6.256 18.6 4.272 17.448 2.896 16.04C1.552 14.632 0.88 12.76 0.88 10.424C0.848 8.44 1.312 6.744 2.272 5.336C3.264 3.896 4.608 2.792 6.304 2.024C8 1.224 9.952 0.823999 12.16 0.823999C14.4 0.823999 16.368 1.224 18.064 2.024C19.792 2.824 21.136 3.944 22.096 5.384C23.088 6.824 23.616 8.536 23.68 10.52H17.104C17.072 9.336 16.608 8.296 15.712 7.4C14.848 6.472 13.632 6.008 12.064 6.008C10.72 5.976 9.584 6.312 8.656 7.016C7.76 7.688 7.312 8.68 7.312 9.992C7.312 11.112 7.664 12.008 8.368 12.68C9.072 13.32 10.032 13.864 11.248 14.312C12.464 14.76 13.856 15.24 15.424 15.752C17.088 16.328 18.608 17 19.984 17.768C21.36 18.536 22.464 19.56 23.296 20.84C24.128 22.088 24.544 23.704 24.544 25.688C24.544 27.448 24.096 29.08 23.2 30.584C22.304 32.088 20.976 33.304 19.216 34.232C17.456 35.128 15.296 35.576 12.736 35.576ZM29.7606 45.56V11.192H35.2326L35.9046 14.6C36.6726 13.544 37.6806 12.616 38.9286 11.816C40.2086 11.016 41.8566 10.616 43.8726 10.616C46.1126 10.616 48.1126 11.16 49.8726 12.248C51.6326 13.336 53.0246 14.824 54.0486 16.712C55.0726 18.6 55.5846 20.744 55.5846 23.144C55.5846 25.544 55.0726 27.688 54.0486 29.576C53.0246 31.432 51.6326 32.904 49.8726 33.992C48.1126 35.048 46.1126 35.576 43.8726 35.576C42.0806 35.576 40.5126 35.24 39.1686 34.568C37.8246 33.896 36.7366 32.952 35.9046 31.736V45.56H29.7606ZM42.5766 30.2C44.5286 30.2 46.1446 29.544 47.4246 28.232C48.7046 26.92 49.3446 25.224 49.3446 23.144C49.3446 21.064 48.7046 19.352 47.4246 18.008C46.1446 16.664 44.5286 15.992 42.5766 15.992C40.5926 15.992 38.9606 16.664 37.6806 18.008C36.4326 19.32 35.8086 21.016 35.8086 23.096C35.8086 25.176 36.4326 26.888 37.6806 28.232C38.9606 29.544 40.5926 30.2 42.5766 30.2ZM72.6411 35.576C70.2411 35.576 68.1131 35.064 66.2571 34.04C64.4011 33.016 62.9451 31.576 61.8891 29.72C60.8331 27.864 60.3051 25.72 60.3051 23.288C60.3051 20.824 60.8171 18.632 61.8411 16.712C62.8971 14.792 64.3371 13.304 66.1611 12.248C68.0171 11.16 70.1931 10.616 72.6891 10.616C75.0251 10.616 77.0891 11.128 78.8811 12.152C80.6731 13.176 82.0651 14.584 83.0571 16.376C84.0811 18.136 84.5931 20.104 84.5931 22.28C84.5931 22.632 84.5771 23 84.5451 23.384C84.5451 23.768 84.5291 24.168 84.4971 24.584H66.4011C66.5291 26.44 67.1691 27.896 68.3211 28.952C69.5051 30.008 70.9291 30.536 72.5931 30.536C73.8411 30.536 74.8811 30.264 75.7131 29.72C76.5771 29.144 77.2171 28.408 77.6331 27.512H83.8731C83.4251 29.016 82.6731 30.392 81.6171 31.64C80.5931 32.856 79.3131 33.816 77.7771 34.52C76.2731 35.224 74.5611 35.576 72.6411 35.576ZM72.6891 15.608C71.1851 15.608 69.8571 16.04 68.7051 16.904C67.5531 17.736 66.8171 19.016 66.4971 20.744H78.3531C78.2571 19.176 77.6811 17.928 76.6251 17C75.5691 16.072 74.2571 15.608 72.6891 15.608ZM97.9686 35.576C95.9206 35.576 94.2406 35.256 92.9286 34.616C91.6166 33.944 90.6406 33.064 90.0006 31.976C89.3606 30.888 89.0406 29.688 89.0406 28.376C89.0406 26.168 89.9046 24.376 91.6326 23C93.3606 21.624 95.9526 20.936 99.4086 20.936H105.457V20.36C105.457 18.728 104.993 17.528 104.065 16.76C103.137 15.992 101.985 15.608 100.609 15.608C99.3606 15.608 98.2726 15.912 97.3446 16.52C96.4166 17.096 95.8406 17.96 95.6166 19.112H89.6166C89.7766 17.384 90.3526 15.88 91.3446 14.6C92.3686 13.32 93.6806 12.344 95.2806 11.672C96.8806 10.968 98.6726 10.616 100.657 10.616C104.049 10.616 106.721 11.464 108.673 13.16C110.625 14.856 111.601 17.256 111.601 20.36V35H106.369L105.793 31.16C105.089 32.44 104.097 33.496 102.817 34.328C101.569 35.16 99.9526 35.576 97.9686 35.576ZM99.3606 30.776C101.121 30.776 102.481 30.2 103.441 29.048C104.433 27.896 105.057 26.472 105.313 24.776H100.081C98.4486 24.776 97.2806 25.08 96.5766 25.688C95.8726 26.264 95.5206 26.984 95.5206 27.848C95.5206 28.776 95.8726 29.496 96.5766 30.008C97.2806 30.52 98.2086 30.776 99.3606 30.776ZM117.464 35V0.439999H123.608V20.84L132.056 11.192H139.352L129.608 22.04L140.936 35H133.256L123.608 23.048V35H117.464ZM154.344 35.576C151.944 35.576 149.816 35.064 147.96 34.04C146.104 33.016 144.648 31.576 143.592 29.72C142.536 27.864 142.008 25.72 142.008 23.288C142.008 20.824 142.52 18.632 143.544 16.712C144.6 14.792 146.04 13.304 147.864 12.248C149.72 11.16 151.896 10.616 154.392 10.616C156.728 10.616 158.792 11.128 160.584 12.152C162.376 13.176 163.768 14.584 164.76 16.376C165.784 18.136 166.296 20.104 166.296 22.28C166.296 22.632 166.28 23 166.248 23.384C166.248 23.768 166.232 24.168 166.2 24.584H148.104C148.232 26.44 148.872 27.896 150.024 28.952C151.208 30.008 152.632 30.536 154.296 30.536C155.544 30.536 156.584 30.264 157.416 29.72C158.28 29.144 158.92 28.408 159.336 27.512H165.576C165.128 29.016 164.376 30.392 163.32 31.64C162.296 32.856 161.016 33.816 159.48 34.52C157.976 35.224 156.264 35.576 154.344 35.576ZM154.392 15.608C152.888 15.608 151.56 16.04 150.408 16.904C149.256 17.736 148.52 19.016 148.2 20.744H160.056C159.96 19.176 159.384 17.928 158.328 17C157.272 16.072 155.96 15.608 154.392 15.608ZM171.464 35V11.192H176.936L177.512 15.656C178.376 14.12 179.544 12.904 181.016 12.008C182.52 11.08 184.28 10.616 186.296 10.616V17.096H184.568C183.224 17.096 182.024 17.304 180.968 17.72C179.912 18.136 179.08 18.856 178.472 19.88C177.896 20.904 177.608 22.328 177.608 24.152V35H171.464ZM200.335 35.576C198.223 35.576 196.367 35.24 194.767 34.568C193.167 33.864 191.887 32.904 190.927 31.688C189.967 30.472 189.391 29.064 189.199 27.464H195.391C195.583 28.392 196.095 29.192 196.927 29.864C197.791 30.504 198.895 30.824 200.239 30.824C201.583 30.824 202.559 30.552 203.167 30.008C203.807 29.464 204.127 28.84 204.127 28.136C204.127 27.112 203.679 26.424 202.783 26.072C201.887 25.688 200.639 25.32 199.039 24.968C198.015 24.744 196.975 24.472 195.919 24.152C194.863 23.832 193.887 23.432 192.991 22.952C192.127 22.44 191.423 21.8 190.879 21.032C190.335 20.232 190.063 19.256 190.063 18.104C190.063 15.992 190.895 14.216 192.559 12.776C194.255 11.336 196.623 10.616 199.663 10.616C202.479 10.616 204.719 11.272 206.383 12.584C208.079 13.896 209.087 15.704 209.407 18.008H203.599C203.247 16.248 201.919 15.368 199.615 15.368C198.463 15.368 197.567 15.592 196.927 16.04C196.319 16.488 196.015 17.048 196.015 17.72C196.015 18.424 196.479 18.984 197.407 19.4C198.335 19.816 199.567 20.2 201.103 20.552C202.767 20.936 204.287 21.368 205.663 21.848C207.071 22.296 208.191 22.984 209.023 23.912C209.855 24.808 210.271 26.104 210.271 27.8C210.303 29.272 209.919 30.6 209.119 31.784C208.319 32.968 207.167 33.896 205.663 34.568C204.159 35.24 202.383 35.576 200.335 35.576Z" fill="white"/>
</svg>
