<svg width="825" height="450" viewBox="0 0 825 450" fill="none" xmlns="http://www.w3.org/2000/svg">
<path d="M413.981 184.236C413.981 201.04 405.141 214.627 375.464 237.978L255.586 330.672L255.439 330.786L255.402 330.968L247.51 369.901L247.388 370.5H248H436.395C442.902 370.5 448.503 365.906 449.777 359.526L457.437 321.154L457.557 320.556H456.947H347.939L416.663 268.061C439.798 250.431 454.976 235.094 464.369 220.285C473.77 205.461 477.365 191.185 477.365 175.708C477.365 155.335 468.171 137.766 451.991 125.302C435.819 112.845 412.686 105.5 384.793 105.5C339.192 105.5 299.57 124.463 278.413 153.164L278.112 153.572L278.525 153.867L311.485 177.437C316.226 180.827 322.681 179.911 326.888 175.985C340.633 163.162 357.936 156.185 375.773 156.185C388.484 156.185 398.039 159.045 404.405 163.96C410.755 168.863 413.981 175.849 413.981 184.236ZM512.507 109.949H512.098L512.017 110.35L509.699 121.785C505.785 141.097 520.547 159.152 540.252 159.152H549.99C552.443 159.152 554.282 161.4 553.794 163.805L512.017 369.901L511.896 370.5H512.507H562.639C569.13 370.5 574.723 365.927 576.013 359.565L626.49 110.549L626.612 109.949H626H512.507Z" stroke="url(#paint0_linear_133_15)"/>
<path d="M359.981 184.236C359.981 201.04 351.141 214.627 321.464 237.978L201.586 330.672L201.439 330.786L201.402 330.968L193.51 369.901L193.388 370.5H194H382.395C388.902 370.5 394.503 365.906 395.777 359.526L403.437 321.154L403.557 320.556H402.947H293.939L362.663 268.061C385.798 250.431 400.976 235.094 410.369 220.285C419.77 205.461 423.365 191.185 423.365 175.708C423.365 155.335 414.171 137.766 397.991 125.302C381.819 112.845 358.686 105.5 330.793 105.5C285.192 105.5 245.57 124.463 224.413 153.164L224.112 153.572L224.525 153.867L257.485 177.437C262.226 180.827 268.681 179.911 272.888 175.985C286.633 163.162 303.936 156.185 321.773 156.185C334.484 156.185 344.039 159.045 350.405 163.96C356.755 168.863 359.981 175.849 359.981 184.236ZM458.507 109.949H458.098L458.017 110.35L455.699 121.785C451.785 141.097 466.547 159.152 486.252 159.152H495.99C498.443 159.152 500.282 161.4 499.794 163.805L458.017 369.901L457.896 370.5H458.507H508.639C515.13 370.5 520.723 365.927 522.013 359.565L572.49 110.549L572.612 109.949H572H458.507Z" stroke="url(#paint1_linear_133_15)"/>
<path d="M381.36 267.663C427.584 232.438 441.865 206.483 441.865 175.708C441.865 135.292 405.412 106 349.793 106C304.32 106 264.861 124.91 243.816 153.461L276.776 177.03C281.294 180.261 287.486 179.408 291.547 175.62C305.38 162.715 322.803 155.685 340.773 155.685C366.328 155.685 379.481 167.18 379.481 184.236C379.481 201.292 370.462 215.011 340.773 238.371L220.892 331.067L213 370H401.395C407.663 370 413.06 365.575 414.287 359.428L421.947 321.056H311.461L381.36 267.663Z" fill="url(#paint2_linear_133_15)" fill-opacity="0.6"/>
<path d="M477.507 110.449L475.189 121.884C471.337 140.887 485.863 158.652 505.252 158.652H514.99C517.759 158.652 519.834 161.19 519.284 163.904L477.507 370H527.639C533.893 370 539.28 365.595 540.523 359.466L591 110.449H477.507Z" fill="url(#paint3_linear_133_15)" fill-opacity="0.6"/>
<g filter="url(#filter0_d_133_15)">
<path d="M173.507 195L153.532 299.182C171.705 300.749 179.904 285.735 181.732 278.032C191.523 225.941 190.74 215.758 212.281 215.758C228.261 215.758 230.428 227.508 229.515 233.383C228.261 249.363 213.326 252.166 202.882 251.383C192.228 252.323 185.387 264.716 185.257 270.982H208.757C242.283 270.042 251.187 243.289 252.231 230.233C252.231 200.076 229.515 195 216.59 195H173.507Z" stroke="white" stroke-opacity="0.19"/>
<path d="M351.941 226.097L352.409 226.387L352.653 225.893L363.128 204.616L363.336 204.194L362.927 203.961C353.665 198.68 339.543 195.496 325.454 195.496C311.35 195.496 299.089 198.409 290.119 203.97C280.309 210.051 274.447 219.295 274.447 231.271C274.447 239.92 277.853 245.699 282.97 249.688C288.058 253.654 294.812 255.831 301.491 257.375C304.366 258.039 307.24 258.588 309.972 259.111C310.418 259.196 310.86 259.28 311.297 259.364C314.423 259.966 317.318 260.548 319.793 261.253C322.275 261.96 324.285 262.776 325.668 263.822C327.029 264.851 327.76 266.082 327.76 267.666C327.76 270.441 326.39 272.71 323.328 274.315C320.23 275.94 315.416 276.871 308.618 276.871C304.426 276.871 300.128 276.463 295.943 275.706C283.263 273.412 268.121 277.155 261.973 288.708L261.766 289.096L262.125 289.351C270.66 295.407 287.613 299.895 305.438 299.895C319.996 299.895 332.775 296.851 341.932 290.878C351.108 284.892 356.632 275.97 356.632 264.306C356.632 255.795 353.236 250.121 348.136 246.202C343.066 242.308 336.336 240.166 329.682 238.623C326.995 238 324.306 237.471 321.735 236.967C321.121 236.846 320.513 236.726 319.913 236.607C316.8 235.989 313.916 235.381 311.451 234.642C308.98 233.901 306.978 233.042 305.6 231.947C304.244 230.868 303.507 229.575 303.507 227.912C303.507 225.423 304.871 223.099 307.929 221.371C311.005 219.634 315.772 218.52 322.461 218.52C331.757 218.52 342.693 220.376 351.941 226.097Z" stroke="white" stroke-opacity="0.19"/>
<path d="M321.555 261.403C280.43 235.554 303.146 220.671 314.112 219.104C331.658 215.971 347.012 222.499 352.496 226.154L363.071 204.221C317.951 182.915 279.568 202.654 275.73 221.846C269.072 257.879 302.363 255.137 321.555 261.403Z" stroke="white" stroke-opacity="0.19"/>
<path d="M811.489 195.885L811.614 195.283H811H735.228H734.818L734.738 195.685L717.683 280.96C716.07 289.024 722.238 296.549 730.463 296.549H781.974C788.522 296.549 794.17 291.953 795.502 285.542L797.166 277.53L797.291 276.928H796.676H742.568L745.038 264.425C746.152 258.787 751.096 254.724 756.843 254.724H784.234C789.707 254.724 794.416 250.857 795.481 245.489L797.31 236.273L797.428 235.676H796.82H750.876L752.936 225.239C754.121 219.233 759.388 214.904 765.51 214.904H800.122C804.442 214.904 808.169 211.872 809.048 207.641L811.489 195.885Z" stroke="white" stroke-opacity="0.19"/>
<path d="M617.553 295.951L617.433 296.549H618.043H691.523H691.931L692.013 296.149L693.957 286.645C695.014 281.478 691.066 276.642 685.793 276.642H653.72C649.585 276.642 646.485 272.857 647.298 268.803L660.24 204.319C661.178 199.646 657.605 195.283 652.838 195.283H638.096H637.686L637.606 195.685L617.553 295.951Z" stroke="white" stroke-opacity="0.19"/>
<path d="M653.684 195.783H638.018L618.043 296.049H668.176C646.869 293.542 644.937 276.988 646.634 269.024L659.559 204.008C661.439 197.742 656.426 195.914 653.684 195.783Z" stroke="white" stroke-opacity="0.19"/>
<path d="M571.261 296.548L571.347 296.94H571.749H587.96C591.842 296.94 594.696 293.3 593.77 289.529L572.707 203.809C571.534 199.033 567.251 195.675 562.333 195.675H547.399H547.127L546.979 195.903L482.093 296.169L481.594 296.94H482.513H499.796C504.625 296.94 509.104 294.419 511.608 290.29L516.18 282.755C518.929 278.223 523.846 275.455 529.147 275.455H566.62L571.261 296.548ZM554.398 256.837H531.961L549.027 228.911C551.001 225.681 555.906 226.506 556.714 230.205L560.797 248.889C561.689 252.973 558.579 256.837 554.398 256.837Z" stroke="white" stroke-opacity="0.19"/>
<path d="M547.152 195.783L481.744 297.224H498.83C504.028 297.224 508.85 294.512 511.549 290.069L544.802 235.341C565.951 199.7 571.435 201.658 571.435 201.658C570.741 200.156 569.741 199.029 568.675 198.186C565.525 195.695 561.195 195.783 557.179 195.783H547.152Z" stroke="white" stroke-opacity="0.19"/>
<path d="M110.342 257.274C102.901 281.949 76.2677 277.249 76.2674 261.583C69.0605 295.736 95.1978 298.79 109.167 296.049C149.9 285.474 144.417 225.158 151.858 195.783L138.698 197.228C127.497 198.457 118.493 207.009 116.69 218.132L110.342 257.274Z" stroke="white" stroke-opacity="0.19"/>
<path d="M77.2245 196.567H55.9007L47.2829 254.924C43.7593 288.215 73.5259 312.107 115.434 294.09C63.6485 295.261 80.57 249.169 85.5903 205.75C86.1635 200.793 82.2147 196.567 77.2245 196.567Z" stroke="white" stroke-opacity="0.19"/>
<path d="M472.511 216.58L477.145 212.608C425.445 173.441 377.912 209.474 376.096 252.166C373.746 307.39 442.679 309.349 466.961 282.324L461.938 276.858C457.416 271.936 449.708 271.95 443.758 274.996C424.702 284.754 399.204 278.853 399.204 252.166C401.663 218.483 429.442 210.893 448.103 217.89C456.043 220.867 466.072 222.099 472.511 216.58Z" stroke="white" stroke-opacity="0.19"/>
<path d="M437.529 215.786C385.516 212.339 377.851 243.202 376.038 260.044C374.079 190.72 441.837 182.103 477.479 212.261C466.119 227.536 446.537 215.786 437.529 215.786Z" stroke="white" stroke-opacity="0.19"/>
</g>
<g filter="url(#filter1_d_133_15)">
<path d="M139.507 195L119.532 299.182C137.705 300.749 145.904 285.735 147.732 278.032C157.523 225.941 156.74 215.758 178.281 215.758C194.261 215.758 196.428 227.508 195.515 233.383C194.261 249.363 179.326 252.166 168.882 251.383C158.228 252.323 151.387 264.716 151.257 270.982H174.757C208.283 270.042 217.187 243.289 218.231 230.233C218.231 200.076 195.515 195 182.59 195H139.507Z" stroke="white" stroke-opacity="0.19"/>
<path d="M317.941 226.097L318.409 226.387L318.653 225.893L329.128 204.616L329.336 204.194L328.927 203.961C319.665 198.68 305.543 195.496 291.454 195.496C277.35 195.496 265.089 198.409 256.119 203.97C246.309 210.051 240.447 219.295 240.447 231.271C240.447 239.92 243.853 245.699 248.97 249.688C254.058 253.654 260.812 255.831 267.491 257.375C270.366 258.039 273.24 258.588 275.972 259.111C276.418 259.196 276.86 259.28 277.297 259.364C280.423 259.966 283.318 260.548 285.793 261.253C288.275 261.96 290.285 262.776 291.668 263.822C293.029 264.851 293.76 266.082 293.76 267.666C293.76 270.441 292.39 272.71 289.328 274.315C286.23 275.94 281.416 276.871 274.618 276.871C270.426 276.871 266.128 276.463 261.943 275.706C249.263 273.412 234.121 277.155 227.973 288.708L227.766 289.096L228.125 289.351C236.66 295.407 253.613 299.895 271.438 299.895C285.996 299.895 298.775 296.851 307.932 290.878C317.108 284.892 322.632 275.97 322.632 264.306C322.632 255.795 319.236 250.121 314.136 246.202C309.066 242.308 302.336 240.166 295.682 238.623C292.995 238 290.306 237.471 287.735 236.967C287.121 236.846 286.513 236.726 285.913 236.607C282.8 235.989 279.916 235.381 277.451 234.642C274.98 233.901 272.978 233.042 271.6 231.947C270.244 230.868 269.507 229.575 269.507 227.912C269.507 225.423 270.871 223.099 273.929 221.371C277.005 219.634 281.772 218.52 288.461 218.52C297.757 218.52 308.693 220.376 317.941 226.097Z" stroke="white" stroke-opacity="0.19"/>
<path d="M287.555 261.403C246.43 235.554 269.146 220.671 280.112 219.104C297.658 215.971 313.012 222.499 318.496 226.154L329.071 204.221C283.951 182.915 245.568 202.654 241.73 221.846C235.072 257.879 268.363 255.137 287.555 261.403Z" stroke="white" stroke-opacity="0.19"/>
<path d="M777.489 195.885L777.614 195.283H777H701.228H700.818L700.738 195.685L683.683 280.96C682.07 289.024 688.238 296.549 696.463 296.549H747.974C754.522 296.549 760.17 291.953 761.502 285.542L763.166 277.53L763.291 276.928H762.676H708.568L711.038 264.425C712.152 258.787 717.096 254.724 722.843 254.724H750.234C755.707 254.724 760.416 250.857 761.481 245.489L763.31 236.273L763.428 235.676H762.82H716.876L718.936 225.239C720.121 219.233 725.388 214.904 731.51 214.904H766.122C770.442 214.904 774.169 211.872 775.048 207.641L777.489 195.885Z" stroke="white" stroke-opacity="0.19"/>
<path d="M583.553 295.951L583.433 296.549H584.043H657.523H657.931L658.013 296.149L659.957 286.645C661.014 281.478 657.066 276.642 651.793 276.642H619.72C615.585 276.642 612.485 272.857 613.298 268.803L626.24 204.319C627.178 199.646 623.605 195.283 618.838 195.283H604.096H603.686L603.606 195.685L583.553 295.951Z" stroke="white" stroke-opacity="0.19"/>
<path d="M619.684 195.783H604.018L584.043 296.049H634.176C612.869 293.542 610.937 276.988 612.634 269.024L625.559 204.008C627.439 197.742 622.426 195.914 619.684 195.783Z" stroke="white" stroke-opacity="0.19"/>
<path d="M537.261 296.548L537.347 296.94H537.749H553.96C557.842 296.94 560.696 293.3 559.77 289.529L538.707 203.809C537.534 199.033 533.251 195.675 528.333 195.675H513.399H513.127L512.979 195.903L448.093 296.169L447.594 296.94H448.513H465.796C470.625 296.94 475.104 294.419 477.608 290.29L482.18 282.755C484.929 278.223 489.846 275.455 495.147 275.455H532.62L537.261 296.548ZM520.398 256.837H497.961L515.027 228.911C517.001 225.681 521.906 226.506 522.714 230.205L526.797 248.889C527.689 252.973 524.579 256.837 520.398 256.837Z" stroke="white" stroke-opacity="0.19"/>
<path d="M513.152 195.783L447.744 297.224H464.83C470.028 297.224 474.85 294.512 477.549 290.069L510.802 235.341C531.951 199.7 537.435 201.658 537.435 201.658C536.741 200.156 535.741 199.029 534.675 198.186C531.525 195.695 527.195 195.783 523.179 195.783H513.152Z" stroke="white" stroke-opacity="0.19"/>
<path d="M76.3419 257.274C68.9007 281.949 42.2677 277.249 42.2674 261.583C35.0605 295.736 61.1978 298.79 75.1673 296.049C115.9 285.474 110.417 225.158 117.858 195.783L104.698 197.228C93.4972 198.457 84.4933 207.009 82.6896 218.132L76.3419 257.274Z" stroke="white" stroke-opacity="0.19"/>
<path d="M43.2245 196.567H21.9007L13.2829 254.924C9.7593 288.215 39.5259 312.107 81.4335 294.09C29.6485 295.261 46.57 249.169 51.5903 205.75C52.1635 200.793 48.2147 196.567 43.2245 196.567Z" stroke="white" stroke-opacity="0.19"/>
<path d="M438.511 216.58L443.145 212.608C391.445 173.441 343.912 209.474 342.096 252.166C339.746 307.39 408.679 309.349 432.961 282.324L427.938 276.858C423.416 271.936 415.708 271.95 409.758 274.996C390.702 284.754 365.204 278.853 365.204 252.166C367.663 218.483 395.442 210.893 414.103 217.89C422.043 220.867 432.072 222.099 438.511 216.58Z" stroke="white" stroke-opacity="0.19"/>
<path d="M403.529 215.786C351.516 212.339 343.851 243.202 342.038 260.044C340.079 190.72 407.837 182.103 443.479 212.261C432.119 227.536 412.537 215.786 403.529 215.786Z" stroke="white" stroke-opacity="0.19"/>
</g>
<g filter="url(#filter2_d_133_15)">
<path d="M154.507 195L134.532 299.182C152.705 300.749 160.904 285.735 162.732 278.032C172.523 225.941 171.74 215.758 193.281 215.758C209.261 215.758 211.428 227.508 210.515 233.383C209.261 249.363 194.326 252.166 183.882 251.383C173.228 252.323 166.387 264.716 166.257 270.982H189.757C223.283 270.042 232.187 243.289 233.231 230.233C233.231 200.076 210.515 195 197.59 195H154.507Z" fill="url(#paint4_linear_133_15)"/>
<path d="M286.438 299.395C315.433 299.395 337.132 287.263 337.132 264.306C337.132 230.898 284.007 242.656 284.007 227.912C284.007 222.499 289.993 218.02 303.461 218.02C312.814 218.02 323.851 219.886 333.204 225.672L343.679 204.395C334.513 199.169 320.484 195.996 306.454 195.996C292.411 195.996 280.251 198.898 271.382 204.395C261.704 210.395 255.947 219.486 255.947 231.271C255.947 265.24 309.26 253.481 309.26 267.666C309.26 273.638 303.274 277.371 289.618 277.371C285.394 277.371 281.066 276.96 276.854 276.198C264.281 273.923 249.417 277.663 243.414 288.943C251.832 294.915 268.667 299.395 286.438 299.395Z" fill="url(#paint5_linear_133_15)"/>
<path d="M302.555 261.403C261.43 235.554 284.146 220.671 295.112 219.104C312.658 215.971 328.012 222.499 333.496 226.154L344.071 204.221C298.951 182.915 260.568 202.654 256.73 221.846C250.072 257.879 283.363 255.137 302.555 261.403Z" fill="url(#paint6_linear_133_15)"/>
<path d="M781.122 214.404C785.205 214.404 788.728 211.538 789.558 207.54L792 195.783H716.228L699.173 281.058C697.622 288.813 703.554 296.049 711.463 296.049H762.974C769.285 296.049 774.729 291.619 776.012 285.44L777.676 277.428H722.96L725.548 264.328C726.708 258.456 731.858 254.224 737.843 254.224H765.234C770.468 254.224 774.972 250.525 775.991 245.392L777.82 236.176H731.268L733.445 225.142C734.677 218.902 740.15 214.404 746.51 214.404H781.122Z" fill="url(#paint7_linear_133_15)"/>
<path d="M599.043 296.049H672.523L674.467 286.545C675.461 281.688 671.75 277.142 666.793 277.142H634.72C630.269 277.142 626.932 273.068 627.808 268.704L640.75 204.221C641.626 199.857 638.289 195.783 633.838 195.783H619.096L599.043 296.049Z" fill="url(#paint8_linear_133_15)"/>
<path d="M634.684 195.783H619.018L599.043 296.049H649.176C627.869 293.542 625.937 276.988 627.634 269.024L640.559 204.008C642.439 197.742 637.426 195.914 634.684 195.783Z" fill="url(#paint9_linear_133_15)"/>
<path d="M552.749 296.44H568.96C572.518 296.44 575.133 293.104 574.284 289.649L553.222 203.928C552.103 199.376 548.021 196.175 543.333 196.175H528.399L463.513 296.44H480.796C485.45 296.44 489.767 294.01 492.181 290.031L496.752 282.496C499.593 277.814 504.671 274.955 510.147 274.955H548.022L552.749 296.44ZM512.07 257.337L529.601 228.65C531.81 225.035 537.298 225.959 538.202 230.098L542.285 248.782C543.246 253.178 539.898 257.337 535.398 257.337H512.07Z" fill="url(#paint10_linear_133_15)"/>
<path d="M528.152 195.783L462.744 297.224H479.83C485.028 297.224 489.85 294.512 492.549 290.069L525.802 235.341C546.951 199.7 552.435 201.658 552.435 201.658C551.741 200.156 550.741 199.029 549.675 198.186C546.525 195.695 542.195 195.783 538.179 195.783H528.152Z" fill="url(#paint11_linear_133_15)"/>
<path d="M91.3419 257.274C83.9007 281.949 57.2677 277.249 57.2674 261.583C50.0605 295.736 76.1978 298.79 90.1673 296.049C130.9 285.474 125.417 225.158 132.858 195.783L119.698 197.228C108.497 198.457 99.4933 207.009 97.6896 218.132L91.3419 257.274Z" fill="url(#paint12_linear_133_15)"/>
<path d="M58.2245 196.567H36.9007L28.2829 254.924C24.7593 288.215 54.5259 312.107 96.4335 294.09C44.6485 295.261 61.57 249.169 66.5903 205.75C67.1635 200.793 63.2147 196.567 58.2245 196.567Z" fill="url(#paint13_linear_133_15)"/>
<path d="M453.511 216.58L458.145 212.608C406.445 173.441 358.912 209.474 357.096 252.166C354.746 307.39 423.679 309.349 447.961 282.324L442.938 276.858C438.416 271.936 430.708 271.95 424.758 274.996C405.702 284.754 380.204 278.853 380.204 252.166C382.663 218.483 410.442 210.893 429.103 217.89C437.043 220.867 447.072 222.099 453.511 216.58Z" fill="url(#paint14_linear_133_15)"/>
<path d="M418.529 215.786C366.516 212.339 358.851 243.202 357.038 260.044C355.079 190.72 422.837 182.103 458.479 212.261C447.119 227.536 427.537 215.786 418.529 215.786Z" fill="url(#paint15_linear_133_15)"/>
</g>
<path d="M93.584 333H95.96L98.912 318.288H104.648L105.08 316.2H91.184L90.776 318.288H96.512L93.584 333ZM121.926 320.16C120.15 320.16 118.614 320.664 117.438 321.768L118.758 315.192H116.454L112.902 333H115.206L116.55 326.28C117.102 323.544 118.782 322.224 121.254 322.224C123.246 322.224 124.206 323.16 124.206 324.816C124.206 325.128 124.158 325.488 124.086 325.872L122.67 333H124.974L126.39 325.872C126.486 325.344 126.534 324.84 126.534 324.384C126.534 321.672 124.806 320.16 121.926 320.16ZM150.86 327.36C150.956 326.832 151.028 326.256 151.028 325.656C151.028 322.224 148.772 320.16 145.34 320.16C141.188 320.16 138.164 323.304 138.164 327.624C138.164 330.984 140.492 333.144 144.26 333.144C146.204 333.144 148.124 332.496 149.372 331.32L148.388 329.664C147.476 330.552 146.036 331.128 144.452 331.128C141.716 331.128 140.42 329.832 140.42 327.504V327.36H150.86ZM145.244 322.08C147.5 322.08 148.988 323.352 148.868 325.68H140.66C141.236 323.472 142.94 322.08 145.244 322.08ZM180.017 333.192C183.161 333.192 185.057 331.752 185.849 327.744L188.153 316.2H179.753L179.321 318.288H185.393L183.497 327.84C183.017 330.192 181.889 331.128 180.065 331.128C178.577 331.128 177.425 330.408 176.801 329.184L175.145 330.744C175.985 332.28 177.713 333.192 180.017 333.192ZM204.202 333.144C208.546 333.144 211.642 329.952 211.642 325.632C211.642 322.296 209.314 320.16 205.69 320.16C201.346 320.16 198.226 323.352 198.226 327.648C198.226 330.96 200.578 333.144 204.202 333.144ZM204.346 331.128C201.922 331.128 200.554 329.784 200.554 327.552C200.554 324.408 202.666 322.176 205.522 322.176C207.946 322.176 209.314 323.496 209.314 325.752C209.314 328.896 207.226 331.128 204.346 331.128ZM234.436 320.28L233.092 327.024C232.54 329.736 230.836 331.08 228.436 331.08C226.492 331.08 225.532 330.144 225.532 328.512C225.532 328.176 225.58 327.816 225.652 327.432L227.068 320.28H224.764L223.348 327.408C223.252 327.936 223.204 328.416 223.204 328.872C223.204 331.584 224.98 333.144 227.764 333.144C229.54 333.144 231.148 332.568 232.324 331.368L232.012 333H234.22L236.74 320.28H234.436ZM251.855 322.176L252.215 320.28H250.007L247.487 333H249.791L251.063 326.64C251.639 323.712 253.319 322.368 255.863 322.368C256.103 322.368 256.247 322.368 256.463 322.392L256.895 320.16C254.615 320.16 253.007 320.736 251.855 322.176ZM275.07 320.16C273.246 320.16 271.638 320.712 270.462 321.912L270.774 320.28H268.566L266.046 333H268.35L269.694 326.28C270.246 323.544 271.926 322.224 274.398 322.224C276.39 322.224 277.35 323.16 277.35 324.816C277.35 325.128 277.302 325.488 277.23 325.872L275.814 333H278.118L279.534 325.872C279.63 325.344 279.678 324.84 279.678 324.384C279.678 321.672 277.95 320.16 275.07 320.16ZM304.005 327.36C304.101 326.832 304.173 326.256 304.173 325.656C304.173 322.224 301.917 320.16 298.485 320.16C294.333 320.16 291.309 323.304 291.309 327.624C291.309 330.984 293.637 333.144 297.405 333.144C299.349 333.144 301.269 332.496 302.517 331.32L301.533 329.664C300.621 330.552 299.181 331.128 297.597 331.128C294.861 331.128 293.565 329.832 293.565 327.504V327.36H304.005ZM298.389 322.08C300.645 322.08 302.133 323.352 302.013 325.68H293.805C294.381 323.472 296.085 322.08 298.389 322.08ZM326.098 320.28L319.69 330.456L317.242 320.28H314.938L318.01 332.928L317.362 333.936C316.45 335.352 315.682 335.832 314.626 335.832C313.714 335.832 312.994 335.496 312.466 334.968L311.266 336.672C311.938 337.392 313.234 337.8 314.458 337.8C316.45 337.8 317.746 336.984 319.402 334.392L328.426 320.28H326.098ZM365.582 324.336C367.358 323.664 368.678 322.152 368.678 319.896C368.678 317.472 366.734 316.2 363.374 316.2H355.934L352.574 333H360.662C365.054 333 367.958 331.224 367.958 327.744C367.958 325.992 367.046 324.84 365.582 324.336ZM362.87 318.144C364.958 318.144 366.182 318.816 366.182 320.28C366.182 322.44 364.406 323.52 361.766 323.52H356.846L357.926 318.144H362.87ZM360.83 331.056H355.358L356.462 325.464H362.078C364.334 325.464 365.582 326.064 365.582 327.768C365.582 329.904 363.854 331.056 360.83 331.056ZM391.978 327.36C392.074 326.832 392.146 326.256 392.146 325.656C392.146 322.224 389.89 320.16 386.458 320.16C382.306 320.16 379.282 323.304 379.282 327.624C379.282 330.984 381.61 333.144 385.378 333.144C387.322 333.144 389.242 332.496 390.49 331.32L389.506 329.664C388.594 330.552 387.154 331.128 385.57 331.128C382.834 331.128 381.538 329.832 381.538 327.504V327.36H391.978ZM386.362 322.08C388.618 322.08 390.106 323.352 389.986 325.68H381.778C382.354 323.472 384.058 322.08 386.362 322.08ZM410.682 316.944C411.378 316.944 411.954 317.16 412.386 317.544L413.346 315.84C412.722 315.336 411.738 315.048 410.682 315.048C408.066 315.048 406.482 316.536 405.978 319.08L405.738 320.28H403.53L403.17 322.176H405.354L403.17 333H405.474L407.658 322.176H411.282L411.666 320.28H407.97L408.186 319.272C408.522 317.688 409.29 316.944 410.682 316.944ZM425.963 333.144C430.307 333.144 433.403 329.952 433.403 325.632C433.403 322.296 431.075 320.16 427.451 320.16C423.107 320.16 419.987 323.352 419.987 327.648C419.987 330.96 422.339 333.144 425.963 333.144ZM426.107 331.128C423.683 331.128 422.315 329.784 422.315 327.552C422.315 324.408 424.427 322.176 427.283 322.176C429.707 322.176 431.075 323.496 431.075 325.752C431.075 328.896 428.987 331.128 426.107 331.128ZM448.493 322.176L448.853 320.28H446.645L444.125 333H446.429L447.701 326.64C448.277 323.712 449.957 322.368 452.501 322.368C452.741 322.368 452.885 322.368 453.101 322.392L453.533 320.16C451.253 320.16 449.645 320.736 448.493 322.176ZM475.24 327.36C475.336 326.832 475.408 326.256 475.408 325.656C475.408 322.224 473.152 320.16 469.72 320.16C465.568 320.16 462.544 323.304 462.544 327.624C462.544 330.984 464.872 333.144 468.64 333.144C470.584 333.144 472.504 332.496 473.752 331.32L472.768 329.664C471.856 330.552 470.416 331.128 468.832 331.128C466.096 331.128 464.8 329.832 464.8 327.504V327.36H475.24ZM469.624 322.08C471.88 322.08 473.368 323.352 473.248 325.68H465.04C465.616 323.472 467.32 322.08 469.624 322.08ZM506.941 333.192C511.117 333.192 514.045 331.224 514.045 327.96C514.045 322.848 505.429 324.528 505.429 321C505.429 319.224 507.181 318.048 509.941 318.048C511.645 318.048 513.253 318.504 514.501 319.392L515.461 317.424C514.093 316.512 512.125 316.008 510.061 316.008C505.957 316.008 503.077 318 503.077 321.216C503.077 326.592 511.693 324.792 511.693 328.296C511.693 330.12 509.869 331.152 507.157 331.152C505.069 331.152 502.981 330.408 501.709 329.232L500.653 331.152C501.877 332.304 504.373 333.192 506.941 333.192ZM530.007 322.176H533.655L534.039 320.28H530.391L530.943 317.496H528.639L528.087 320.28H525.903L525.543 322.176H527.703L526.335 328.992C526.263 329.328 526.239 329.664 526.239 329.952C526.239 331.944 527.607 333.144 529.599 333.144C530.607 333.144 531.687 332.952 532.551 332.352L532.071 330.6C531.543 330.984 530.871 331.2 530.247 331.2C529.095 331.2 528.567 330.6 528.567 329.616C528.567 329.4 528.591 329.184 528.639 328.944L530.007 322.176ZM555.819 320.28L555.387 322.44C554.571 320.952 552.987 320.16 550.803 320.16C546.675 320.16 543.603 323.28 543.603 327.648C543.603 331.08 545.979 333.144 549.219 333.144C551.043 333.144 552.579 332.52 553.707 331.44L553.395 333H555.603L558.123 320.28H555.819ZM549.723 331.128C547.299 331.128 545.931 329.784 545.931 327.552C545.931 324.408 548.043 322.176 550.899 322.176C553.323 322.176 554.691 323.496 554.691 325.752C554.691 328.896 552.603 331.128 549.723 331.128ZM573.234 322.176L573.594 320.28H571.386L568.866 333H571.17L572.442 326.64C573.018 323.712 574.698 322.368 577.242 322.368C577.482 322.368 577.626 322.368 577.842 322.392L578.274 320.16C575.994 320.16 574.386 320.736 573.234 322.176ZM592.718 322.176H596.366L596.75 320.28H593.102L593.654 317.496H591.35L590.798 320.28H588.614L588.254 322.176H590.414L589.046 328.992C588.974 329.328 588.95 329.664 588.95 329.952C588.95 331.944 590.318 333.144 592.31 333.144C593.318 333.144 594.398 332.952 595.262 332.352L594.782 330.6C594.254 330.984 593.582 331.2 592.958 331.2C591.806 331.2 591.278 330.6 591.278 329.616C591.278 329.4 591.302 329.184 591.35 328.944L592.718 322.176ZM611.103 317.832C612.087 317.832 612.783 317.16 612.783 316.176C612.783 315.456 612.159 314.832 611.319 314.832C610.335 314.832 609.663 315.552 609.663 316.44C609.663 317.208 610.263 317.832 611.103 317.832ZM606.759 333H609.063L611.583 320.28H609.279L606.759 333ZM631.366 320.16C629.542 320.16 627.934 320.712 626.758 321.912L627.07 320.28H624.862L622.342 333H624.646L625.99 326.28C626.542 323.544 628.222 322.224 630.694 322.224C632.686 322.224 633.646 323.16 633.646 324.816C633.646 325.128 633.598 325.488 633.526 325.872L632.11 333H634.414L635.83 325.872C635.926 325.344 635.974 324.84 635.974 324.384C635.974 321.672 634.246 320.16 631.366 320.16ZM660.133 320.28L659.677 322.608C658.837 320.928 657.013 320.16 654.925 320.16C650.677 320.16 647.677 323.256 647.677 327.288C647.677 330.504 649.981 332.472 653.341 332.472C655.237 332.472 656.797 331.824 657.949 330.72L657.757 331.632C657.205 334.392 655.693 335.76 652.693 335.76C650.701 335.76 648.973 335.136 647.989 334.224L646.717 336C648.085 337.152 650.101 337.8 652.525 337.8C656.749 337.8 659.221 335.88 660.133 331.272L662.317 320.28H660.133ZM653.797 330.456C651.421 330.456 650.005 329.208 650.005 327.144C650.005 324.264 652.093 322.176 654.997 322.176C657.397 322.176 658.789 323.424 658.789 325.464C658.789 328.368 656.701 330.456 653.797 330.456ZM696.156 333.192C700.5 333.192 703.236 330.768 704.22 325.872L706.14 316.2H703.788L701.892 325.704C701.148 329.4 699.348 331.056 696.372 331.056C693.708 331.056 692.244 329.784 692.244 327.312C692.244 326.832 692.292 326.304 692.412 325.728L694.332 316.2H691.932L690.036 325.752C689.916 326.4 689.844 327 689.844 327.576C689.844 331.08 692.172 333.192 696.156 333.192ZM725.173 320.16C723.325 320.16 721.813 320.784 720.685 321.864L720.997 320.28H718.789L715.333 337.656H717.637L718.981 330.84C719.797 332.328 721.405 333.144 723.589 333.144C727.717 333.144 730.789 330 730.789 325.632C730.789 322.2 728.413 320.16 725.173 320.16ZM723.493 331.128C721.069 331.128 719.701 329.784 719.701 327.552C719.701 324.408 721.789 322.176 724.669 322.176C727.093 322.176 728.461 323.496 728.461 325.752C728.461 328.896 726.349 331.128 723.493 331.128Z" fill="white"/>
<circle cx="407" cy="225" r="224.5" stroke="white" stroke-opacity="0.25" stroke-dasharray="13 13"/>
<defs>
<filter id="filter0_d_133_15" x="34.5" y="186.5" width="789.729" height="130.271" filterUnits="userSpaceOnUse" color-interpolation-filters="sRGB">
<feFlood flood-opacity="0" result="BackgroundImageFix"/>
<feColorMatrix in="SourceAlpha" type="matrix" values="0 0 0 0 0 0 0 0 0 0 0 0 0 0 0 0 0 0 127 0" result="hardAlpha"/>
<feOffset dy="4"/>
<feGaussianBlur stdDeviation="6"/>
<feComposite in2="hardAlpha" operator="out"/>
<feColorMatrix type="matrix" values="0 0 0 0 0 0 0 0 0 0 0 0 0 0 0 0 0 0 0.4 0"/>
<feBlend mode="normal" in2="BackgroundImageFix" result="effect1_dropShadow_133_15"/>
<feBlend mode="normal" in="SourceGraphic" in2="effect1_dropShadow_133_15" result="shape"/>
</filter>
<filter id="filter1_d_133_15" x="0.5" y="186.5" width="789.729" height="130.271" filterUnits="userSpaceOnUse" color-interpolation-filters="sRGB">
<feFlood flood-opacity="0" result="BackgroundImageFix"/>
<feColorMatrix in="SourceAlpha" type="matrix" values="0 0 0 0 0 0 0 0 0 0 0 0 0 0 0 0 0 0 127 0" result="hardAlpha"/>
<feOffset dy="4"/>
<feGaussianBlur stdDeviation="6"/>
<feComposite in2="hardAlpha" operator="out"/>
<feColorMatrix type="matrix" values="0 0 0 0 0 0 0 0 0 0 0 0 0 0 0 0 0 0 0.4 0"/>
<feBlend mode="normal" in2="BackgroundImageFix" result="effect1_dropShadow_133_15"/>
<feBlend mode="normal" in="SourceGraphic" in2="effect1_dropShadow_133_15" result="shape"/>
</filter>
<filter id="filter2_d_133_15" x="16" y="187" width="788" height="129.271" filterUnits="userSpaceOnUse" color-interpolation-filters="sRGB">
<feFlood flood-opacity="0" result="BackgroundImageFix"/>
<feColorMatrix in="SourceAlpha" type="matrix" values="0 0 0 0 0 0 0 0 0 0 0 0 0 0 0 0 0 0 127 0" result="hardAlpha"/>
<feOffset dy="4"/>
<feGaussianBlur stdDeviation="6"/>
<feComposite in2="hardAlpha" operator="out"/>
<feColorMatrix type="matrix" values="0 0 0 0 0 0 0 0 0 0 0 0 0 0 0 0 0 0 0.4 0"/>
<feBlend mode="normal" in2="BackgroundImageFix" result="effect1_dropShadow_133_15"/>
<feBlend mode="normal" in="SourceGraphic" in2="effect1_dropShadow_133_15" result="shape"/>
</filter>
<linearGradient id="paint0_linear_133_15" x1="464" y1="78" x2="448" y2="337" gradientUnits="userSpaceOnUse">
<stop stop-color="#959595"/>
<stop offset="1" stop-color="#767676" stop-opacity="0"/>
</linearGradient>
<linearGradient id="paint1_linear_133_15" x1="410" y1="78" x2="394" y2="337" gradientUnits="userSpaceOnUse">
<stop stop-color="#959595"/>
<stop offset="1" stop-color="#767676" stop-opacity="0"/>
</linearGradient>
<linearGradient id="paint2_linear_133_15" x1="306.3" y1="126.671" x2="477.04" y2="372.162" gradientUnits="userSpaceOnUse">
<stop stop-color="#892BFF"/>
<stop offset="1" stop-color="#FF5CF8"/>
</linearGradient>
<linearGradient id="paint3_linear_133_15" x1="306.3" y1="126.671" x2="477.04" y2="372.162" gradientUnits="userSpaceOnUse">
<stop stop-color="#892BFF"/>
<stop offset="1" stop-color="#FF5CF8"/>
</linearGradient>
<linearGradient id="paint4_linear_133_15" x1="143.149" y1="211.434" x2="218.348" y2="273.316" gradientUnits="userSpaceOnUse">
<stop stop-color="#BE33B5"/>
<stop offset="1" stop-color="#FF5C5C"/>
</linearGradient>
<linearGradient id="paint5_linear_133_15" x1="274.747" y1="234.379" x2="324.096" y2="300.961" gradientUnits="userSpaceOnUse">
<stop stop-color="#AE763F"/>
<stop offset="1" stop-color="#FF9141"/>
</linearGradient>
<linearGradient id="paint6_linear_133_15" x1="331.538" y1="204.221" x2="299.9" y2="261.403" gradientUnits="userSpaceOnUse">
<stop stop-color="#F75767"/>
<stop offset="1" stop-color="#FFB257"/>
</linearGradient>
<linearGradient id="paint7_linear_133_15" x1="716.15" y1="191.867" x2="767.849" y2="296.049" gradientUnits="userSpaceOnUse">
<stop stop-color="#74FDEB"/>
<stop offset="0.516512" stop-color="#1D93FF"/>
<stop offset="1" stop-color="#9122FF"/>
</linearGradient>
<linearGradient id="paint8_linear_133_15" x1="669.934" y1="292.916" x2="624.893" y2="282.732" gradientUnits="userSpaceOnUse">
<stop stop-color="#76FFEF"/>
<stop offset="1" stop-color="#2BB774"/>
</linearGradient>
<linearGradient id="paint9_linear_133_15" x1="605.31" y1="214.975" x2="624.109" y2="296.049" gradientUnits="userSpaceOnUse">
<stop stop-color="#ABB817"/>
<stop offset="1" stop-color="#37D982"/>
</linearGradient>
<linearGradient id="paint10_linear_133_15" x1="506.611" y1="251.008" x2="566.535" y2="269.807" gradientUnits="userSpaceOnUse">
<stop stop-color="#867413"/>
<stop offset="1" stop-color="#ABB817"/>
</linearGradient>
<linearGradient id="paint11_linear_133_15" x1="487.419" y1="268.633" x2="552.435" y2="195.392" gradientUnits="userSpaceOnUse">
<stop stop-color="#FBB429"/>
<stop offset="1" stop-color="#EEE627"/>
</linearGradient>
<linearGradient id="paint12_linear_133_15" x1="94.4463" y1="195.783" x2="94.4463" y2="296.82" gradientUnits="userSpaceOnUse">
<stop stop-color="#FF39B0"/>
<stop offset="1" stop-color="#5329BC"/>
</linearGradient>
<linearGradient id="paint13_linear_133_15" x1="59.0873" y1="196.567" x2="59.0873" y2="300.548" gradientUnits="userSpaceOnUse">
<stop stop-color="#B352FF"/>
<stop offset="1" stop-color="#6B37FF"/>
</linearGradient>
<linearGradient id="paint14_linear_133_15" x1="377.012" y1="218.919" x2="415.786" y2="297.643" gradientUnits="userSpaceOnUse">
<stop offset="0.0001" stop-color="#A3851D"/>
<stop offset="1" stop-color="#FFD029"/>
</linearGradient>
<linearGradient id="paint15_linear_133_15" x1="445.553" y1="210.695" x2="375.446" y2="231.453" gradientUnits="userSpaceOnUse">
<stop stop-color="#F48D41"/>
<stop offset="1" stop-color="#F4E241"/>
</linearGradient>
</defs>
</svg>
