<svg width="40" height="38" viewBox="0 0 40 38" fill="none" xmlns="http://www.w3.org/2000/svg">
<path d="M38.6699 18.6992L20.9711 1.01327C20.8437 0.885585 20.6923 0.784284 20.5257 0.715167C20.359 0.64605 20.1804 0.610474 20 0.610474C19.8196 0.610474 19.641 0.64605 19.4744 0.715167C19.3077 0.784284 19.1564 0.885585 19.0289 1.01327L1.33009 18.6992C0.814465 19.2148 0.522278 19.9152 0.522278 20.6457C0.522278 22.1625 1.75548 23.3957 3.27228 23.3957H5.13712V36.0156C5.13712 36.7762 5.75157 37.3906 6.51212 37.3906H17.25V27.7656H22.0625V37.3906H33.4879C34.2485 37.3906 34.8629 36.7762 34.8629 36.0156V23.3957H36.7277C37.4582 23.3957 38.1586 23.1078 38.6742 22.5879C39.7442 21.5137 39.7442 19.7734 38.6699 18.6992Z" fill="white"/>
</svg>
